<svg width="500" height="104" viewBox="0 0 500 104" fill="none" xmlns="http://www.w3.org/2000/svg">
<g filter="url(#filter0_i_292_5)">
<rect x="2" y="15" width="496" height="87" rx="10" fill="#EAAF9E"/>
</g>
<rect x="1" y="14" width="498" height="89" rx="11" stroke="#9E6A5E" stroke-width="2"/>
<mask id="mask0_292_5" style="mask-type:alpha" maskUnits="userSpaceOnUse" x="2" y="15" width="496" height="87">
<mask id="path-3-inside-1_292_5" fill="white">
<rect x="2" y="15" width="496" height="87" rx="10"/>
</mask>
<rect x="2" y="15" width="496" height="87" rx="10" fill="#CF5836" stroke="black" stroke-width="60" mask="url(#path-3-inside-1_292_5)"/>
</mask>
<g mask="url(#mask0_292_5)">
<path d="M-2.14502 116.309L71.0806 -1.59863H109.075L35.8494 116.309H-2.14502Z" fill="#DBA69A"/>
<path d="M-67.0806 116.309L6.14507 -1.59863H44.1395L-29.0861 116.309H-67.0806Z" fill="#DBA69A"/>
<path d="M64.1719 116.309L137.398 -1.59863H175.392L102.166 116.309H64.1719Z" fill="#DBA69A"/>
<path d="M134.635 116.309L207.86 -1.59863H245.855L172.629 116.309H134.635Z" fill="#DBA69A"/>
<path d="M205.097 116.309L278.323 -1.59863H316.317L243.092 116.309H205.097Z" fill="#DBA69A"/>
<path d="M275.56 116.309L348.785 -1.59863H386.78L313.554 116.309H275.56Z" fill="#DBA69A"/>
<path d="M344.641 116.309L417.867 -1.59863H455.861L382.636 116.309H344.641Z" fill="#DBA69A"/>
<path d="M408.194 116.309L481.42 -1.59863H519.414L446.189 116.309H408.194Z" fill="#DBA69A"/>
<path d="M467.605 116.309L540.831 -1.59863H578.825L505.599 116.309H467.605Z" fill="#DBA69A"/>
</g>
<rect x="455" y="19" width="4" height="4" rx="2" fill="black"/>
<rect x="39" y="18" width="4" height="4" rx="2" fill="black"/>
<path d="M38 -356.119V-359.984C38 -361.647 39.2588 -363 40.8074 -363H41.1946C42.7412 -363 44 -361.647 44 -359.984V-356.119C44 -354.651 43.0169 -353.424 41.7216 -353.158V-351.87C43.0169 -351.605 44 -350.378 44 -348.909V-345.044C44 -343.576 43.0169 -342.349 41.7216 -342.083V-341.103C43.0169 -340.837 44 -339.61 44 -338.142V-334.276C44 -332.808 43.0169 -331.581 41.7216 -331.315V-330.028C43.0169 -329.762 44 -328.535 44 -327.066V-323.201C44 -321.733 43.0169 -320.506 41.7216 -320.24V-319.114C43.0169 -318.848 44 -317.621 44 -316.153V-312.287C44 -310.819 43.0169 -309.592 41.7216 -309.326V-308.039C43.0169 -307.773 44 -306.546 44 -305.078V-301.212C44 -299.744 43.0169 -298.517 41.7216 -298.251V-297.271C43.0169 -297.005 44 -295.778 44 -294.31V-290.444C44 -288.976 43.0169 -287.749 41.7216 -287.483V-286.196C43.0169 -285.93 44 -284.703 44 -283.235V-279.369C44 -277.901 43.0169 -276.674 41.7216 -276.408V-275.101C43.0169 -274.835 44 -273.608 44 -272.14V-268.275C44 -266.806 43.0169 -265.579 41.7216 -265.314V-264.026C43.0169 -263.76 44 -262.533 44 -261.065V-257.2C44 -255.731 43.0169 -254.504 41.7216 -254.238V-253.258C43.0169 -252.992 44 -251.765 44 -250.297V-246.432C44 -244.963 43.0169 -243.736 41.7216 -243.471V-242.183C43.0169 -241.917 44 -240.69 44 -239.222V-235.357C44 -233.888 43.0169 -232.661 41.7216 -232.396V-231.267C43.0169 -231.001 44 -229.774 44 -228.306V-224.441C44 -222.972 43.0169 -221.745 41.7216 -221.479V-220.192C43.0169 -219.926 44 -218.699 44 -217.231V-213.365C44 -211.897 43.0169 -210.67 41.7216 -210.404V-209.424C43.0169 -209.158 44 -207.931 44 -206.463V-202.598C44 -201.129 43.0169 -199.902 41.7216 -199.637V-198.349C43.0169 -198.083 44 -196.856 44 -195.388V-191.523C44 -190.054 43.0169 -188.827 41.7216 -188.561V-187.287C43.0169 -187.021 44 -185.794 44 -184.326V-180.461C44 -178.992 43.0169 -177.765 41.7216 -177.499V-176.212C43.0169 -175.946 44 -174.719 44 -173.251V-169.388C44 -167.919 43.0169 -166.692 41.7216 -166.427V-165.446C43.0169 -165.18 44 -163.954 44 -162.485V-158.62C44 -157.151 43.0169 -155.925 41.7216 -155.659V-154.371C43.0169 -154.105 44 -152.878 44 -151.41V-147.545C44 -146.076 43.0169 -144.849 41.7216 -144.584V-143.457C43.0169 -143.191 44 -141.965 44 -140.496V-136.631C44 -135.162 43.0169 -133.936 41.7216 -133.67V-132.382C43.0169 -132.116 44 -130.89 44 -129.421V-125.556C44 -124.087 43.0169 -122.861 41.7216 -122.595V-121.614C43.0169 -121.348 44 -120.122 44 -118.653V-114.79C44 -113.322 43.0169 -112.095 41.7216 -111.829V-110.541C43.0169 -110.275 44 -109.049 44 -107.58V-103.715C44 -102.246 43.0169 -101.02 41.7216 -100.754V-99.4466C43.0169 -99.1808 44 -97.9541 44 -96.4856V-92.6203C44 -91.1517 43.0169 -89.925 41.7216 -89.6592V-88.3715C43.0169 -88.1057 44 -86.879 44 -85.4105V-81.5474C44 -80.0788 43.0169 -78.8521 41.7216 -78.5863V-77.6058C43.0169 -77.34 44 -76.1133 44 -74.6448V-70.7795C44 -69.3109 43.0169 -68.0843 41.7216 -67.8185V-66.5308C43.0169 -66.2649 44 -65.0382 44 -63.5697V-59.7044C44 -58.2359 43.0169 -57.0092 41.7216 -56.7434V-55.6169C43.0169 -55.3511 44 -54.1244 44 -52.6559V-48.7928C44 -47.3242 43.0169 -46.0975 41.7216 -45.8317V-44.544C43.0169 -44.2782 44 -43.0515 44 -41.5829V-37.7177C44 -36.2491 43.0169 -35.0224 41.7216 -34.7566V-33.7762C43.0169 -33.5103 44 -32.2836 44 -30.8151V-26.952C44 -25.4813 43.0169 -24.2567 41.7216 -23.9909V-22.7032C43.0169 -22.4374 44 -21.2107 44 -19.7422V-15.8769C44 -14.4084 43.0169 -13.1817 41.7216 -12.9159V-11.6805C43.0169 -11.4146 44 -10.1879 44 -8.71939V-4.85413C44 -3.38559 43.0169 -2.15891 41.7216 -1.89307V-0.605377C43.0169 -0.339539 44 0.887146 44 2.35568V6.21878C44 7.68735 43.0169 8.91403 41.7216 9.17984V10.1603C43.0169 10.4261 44 11.6528 44 13.1214V16.9845C44 18.6491 42.7412 20 41.1946 20H40.8074C39.2608 20 38.002 18.6469 38.002 16.9845V13.1214C38.002 11.6506 38.9851 10.4261 40.2804 10.1603V9.17984C38.9851 8.91403 38.002 7.68735 38.002 6.21878V2.35568C38.002 0.887146 38.9851 -0.339539 40.2804 -0.605377V-1.89307C38.9851 -2.15891 38.002 -3.38559 38.002 -4.85413V-8.71939C38.002 -10.1879 38.9851 -11.4146 40.2804 -11.6805V-12.9159C38.9851 -13.1817 38.002 -14.4084 38.002 -15.8769V-19.7422C38.002 -21.2107 38.9851 -22.4374 40.2804 -22.7032V-23.9909C38.9851 -24.2567 38.002 -25.4835 38.002 -26.952V-30.8151C38.002 -32.2836 38.9851 -33.5103 40.2804 -33.7762V-34.7566C38.9851 -35.0224 38.002 -36.2491 38.002 -37.7177V-41.5829C38.002 -43.0515 38.9851 -44.2782 40.2804 -44.544V-45.8317C38.9851 -46.0975 38.002 -47.3242 38.002 -48.7928V-52.6559C38.002 -54.1244 38.9851 -55.3511 40.2804 -55.6169V-56.7434C38.9851 -57.0092 38.002 -58.2359 38.002 -59.7044V-63.5697C38.002 -65.0382 38.9851 -66.2649 40.2804 -66.5308V-67.8185C38.9851 -68.0843 38.002 -69.3109 38.002 -70.7795V-74.6448C38.002 -76.1133 38.9851 -77.34 40.2804 -77.6058V-78.5863C38.9851 -78.8521 38.002 -80.0788 38.002 -81.5474V-85.4105C38.002 -86.879 38.9851 -88.1057 40.2804 -88.3715V-89.6592C38.9851 -89.925 38.002 -91.1517 38.002 -92.6203V-96.4856C38.002 -97.9541 38.9851 -99.1808 40.2804 -99.4466V-100.754C38.9851 -101.02 38.002 -102.246 38.002 -103.715V-107.58C38.002 -109.049 38.9851 -110.275 40.2804 -110.541V-111.829C38.9851 -112.095 38.002 -113.322 38.002 -114.79V-118.653C38.002 -120.124 38.9851 -121.348 40.2804 -121.614V-122.595C38.9851 -122.861 38.002 -124.087 38.002 -125.556V-129.421C38.002 -130.89 38.9851 -132.116 40.2804 -132.382V-133.67C38.9851 -133.936 38.002 -135.162 38.002 -136.631V-140.496C38.002 -141.965 38.9851 -143.191 40.2804 -143.457V-144.584C38.9851 -144.849 38.002 -146.076 38.002 -147.545V-151.41C38.002 -152.878 38.9851 -154.105 40.2804 -154.371V-155.659C38.9851 -155.925 38.002 -157.151 38.002 -158.62V-162.485C38.002 -163.954 38.9851 -165.18 40.2804 -165.446V-166.427C38.9851 -166.692 38.002 -167.919 38.002 -169.388V-173.251C38.002 -174.719 38.9851 -175.946 40.2804 -176.212V-177.499C38.9851 -177.765 38.002 -178.992 38.002 -180.461V-184.326C38.002 -185.794 38.9851 -187.021 40.2804 -187.287V-188.561C38.9851 -188.827 38.002 -190.054 38.002 -191.523V-195.388C38.002 -196.856 38.9851 -198.083 40.2804 -198.349V-199.637C38.9851 -199.902 38.002 -201.129 38.002 -202.598V-206.463C38.002 -207.931 38.9851 -209.158 40.2804 -209.424V-210.404C38.9851 -210.67 38.002 -211.897 38.002 -213.365V-217.231C38.002 -218.699 38.9851 -219.926 40.2804 -220.192V-221.479C38.9851 -221.745 38.002 -222.972 38.002 -224.441V-228.306C38.002 -229.774 38.9851 -231.001 40.2804 -231.267V-232.396C38.9851 -232.661 38.002 -233.888 38.002 -235.357V-239.222C38.002 -240.69 38.9851 -241.917 40.2804 -242.183V-243.471C38.9851 -243.736 38.002 -244.963 38.002 -246.432V-250.297C38.002 -251.765 38.9851 -252.992 40.2804 -253.258V-254.238C38.9851 -254.504 38.002 -255.731 38.002 -257.2V-261.065C38.002 -262.533 38.9851 -263.76 40.2804 -264.026V-265.314C38.9851 -265.579 38.002 -266.806 38.002 -268.275V-272.14C38.002 -273.608 38.9851 -274.835 40.2804 -275.101V-276.408C38.9851 -276.674 38.002 -277.901 38.002 -279.369V-283.235C38.002 -284.703 38.9851 -285.93 40.2804 -286.196V-287.483C38.9851 -287.749 38.002 -288.976 38.002 -290.444V-294.31C38.002 -295.778 38.9851 -297.005 40.2804 -297.271V-298.251C38.9851 -298.517 38.002 -299.744 38.002 -301.212V-305.078C38.002 -306.546 38.9851 -307.773 40.2804 -308.039V-309.326C38.9851 -309.592 38.002 -310.819 38.002 -312.287V-316.153C38.002 -317.621 38.9851 -318.848 40.2804 -319.114V-320.24C38.9851 -320.506 38.002 -321.733 38.002 -323.201V-327.066C38.002 -328.535 38.9851 -329.762 40.2804 -330.028V-331.315C38.9851 -331.581 38.002 -332.808 38.002 -334.276V-338.142C38.002 -339.61 38.9851 -340.837 40.2804 -341.103V-342.083C38.9851 -342.349 38.002 -343.576 38.002 -345.044V-348.909C38.002 -350.378 38.9851 -351.605 40.2804 -351.87V-353.158C38.9851 -353.424 38.002 -354.651 38.002 -356.119H38ZM42.5568 -356.119V-359.984C42.5568 -360.793 41.9446 -361.451 41.1926 -361.451H40.8054C40.0534 -361.451 39.4412 -360.793 39.4412 -359.984V-356.119C39.4412 -355.511 39.7858 -354.991 40.2764 -354.768V-355.607C40.2764 -356.036 40.5986 -356.383 40.998 -356.383C41.3973 -356.383 41.7196 -356.036 41.7196 -355.607V-354.768C42.2101 -354.991 42.5547 -355.511 42.5547 -356.119H42.5568ZM39.4432 13.1061V16.9692C39.4432 17.7776 40.0554 18.4356 40.8074 18.4356H41.1946C41.9466 18.4356 42.5588 17.7776 42.5588 16.9692V13.1061C42.5588 12.4982 42.2142 11.9775 41.7236 11.7552V12.6006C41.7236 13.0298 41.4014 13.3763 41.002 13.3763C40.6027 13.3763 40.2804 13.0298 40.2804 12.6006V11.7552C39.7899 11.9775 39.4453 12.4982 39.4453 13.1061H39.4432ZM39.4432 2.34042V6.20352C39.4432 6.81143 39.7878 7.33215 40.2784 7.55441V6.76352C40.2784 6.33426 40.6007 5.98782 41 5.98782C41.3993 5.98782 41.7216 6.33426 41.7216 6.76352V7.55441C42.2122 7.33215 42.5568 6.81143 42.5568 6.20352V2.34042C42.5568 1.73254 42.2122 1.21179 41.7216 0.989563V1.4798C41.7216 1.90686 41.3993 2.25546 41 2.25546C40.6007 2.25546 40.2784 1.90903 40.2784 1.4798V0.989563C39.7878 1.21179 39.4432 1.73254 39.4432 2.34042ZM39.4432 -8.73465V-4.86935C39.4432 -4.26147 39.7878 -3.74072 40.2784 -3.51849V-4.35733C40.2784 -4.78439 40.6007 -5.13303 41 -5.13303C41.3993 -5.13303 41.7216 -4.78656 41.7216 -4.35733V-3.51849C42.2122 -3.74072 42.5568 -4.26364 42.5568 -4.86935V-8.73465C42.5568 -9.34253 42.2122 -9.86331 41.7216 -10.0855V-9.24014C41.7216 -8.81308 41.3993 -8.46448 41 -8.46448C40.6007 -8.46448 40.2784 -8.81091 40.2784 -9.24014V-10.0855C39.7878 -9.86331 39.4432 -9.34036 39.4432 -8.73465ZM39.4432 -19.7574V-15.8922C39.4432 -15.2843 39.7878 -14.7635 40.2784 -14.5413V-15.0773C40.2784 -15.5043 40.6007 -15.8529 41 -15.8529C41.3993 -15.8529 41.7216 -15.5065 41.7216 -15.0773V-14.5413C42.2122 -14.7635 42.5568 -15.2865 42.5568 -15.8922V-19.7574C42.5568 -20.3654 42.2122 -20.8861 41.7216 -21.1083V-20.6181C41.7216 -20.191 41.3993 -19.8424 41 -19.8424C40.6007 -19.8424 40.2784 -20.1888 40.2784 -20.6181V-21.1083C39.7878 -20.8861 39.4432 -20.3654 39.4432 -19.7574ZM39.4432 -30.8304V-26.9673C39.4432 -26.3593 39.7878 -25.8386 40.2784 -25.6164V-26.4552C40.2784 -26.8823 40.6007 -27.2309 41 -27.2309C41.3993 -27.2309 41.7216 -26.8845 41.7216 -26.4552V-25.6164C42.2122 -25.8386 42.5568 -26.3593 42.5568 -26.9673V-30.8304C42.5568 -31.4382 42.2122 -31.959 41.7216 -32.1812V-31.3358C41.7216 -30.9066 41.3993 -30.5602 41 -30.5602C40.6007 -30.5602 40.2784 -30.9066 40.2784 -31.3358V-32.1812C39.7878 -31.959 39.4432 -31.4382 39.4432 -30.8304ZM39.4432 -41.5982V-37.7329C39.4432 -37.1272 39.7878 -36.6043 40.2784 -36.382V-37.173C40.2784 -37.6 40.6007 -37.9486 41 -37.9486C41.3993 -37.9486 41.7216 -37.6022 41.7216 -37.173V-36.382C42.2122 -36.6043 42.5568 -37.125 42.5568 -37.7329V-41.5982C42.5568 -42.2061 42.2122 -42.7268 41.7216 -42.9491V-42.4588C41.7216 -42.0296 41.3993 -41.6832 41 -41.6832C40.6007 -41.6832 40.2784 -42.0296 40.2784 -42.4588V-42.9491C39.7878 -42.7268 39.4432 -42.2061 39.4432 -41.5982ZM39.4432 -52.6711V-48.808C39.4432 -48.2001 39.7878 -47.6794 40.2784 -47.4571V-48.296C40.2784 -48.7231 40.6007 -49.0717 41 -49.0717C41.3993 -49.0717 41.7216 -48.7231 41.7216 -48.296V-47.4571C42.2122 -47.6794 42.5568 -48.2001 42.5568 -48.808V-52.6711C42.5568 -53.279 42.2122 -53.7998 41.7216 -54.022V-53.1766C41.7216 -52.7495 41.3993 -52.4009 41 -52.4009C40.6007 -52.4009 40.2784 -52.7474 40.2784 -53.1766V-54.022C39.7878 -53.7998 39.4432 -53.279 39.4432 -52.6711ZM39.4432 -63.585V-59.7197C39.4432 -59.1118 39.7878 -58.591 40.2784 -58.3688V-59.0115C40.2784 -59.4386 40.6007 -59.7872 41 -59.7872C41.3993 -59.7872 41.7216 -59.4408 41.7216 -59.0115V-58.3688C42.2122 -58.591 42.5568 -59.1118 42.5568 -59.7197V-63.585C42.5568 -64.1929 42.2122 -64.7136 41.7216 -64.9359V-64.4456C41.7216 -64.0186 41.3993 -63.6699 41 -63.6699C40.6007 -63.6699 40.2784 -64.0164 40.2784 -64.4456V-64.9359C39.7878 -64.7136 39.4432 -64.1907 39.4432 -63.585ZM39.4432 -74.66V-70.7948C39.4432 -70.1891 39.7878 -69.6661 40.2784 -69.4439V-70.2827C40.2784 -70.7098 40.6007 -71.0584 41 -71.0584C41.3993 -71.0584 41.7216 -70.712 41.7216 -70.2827V-69.4439C42.2122 -69.6661 42.5568 -70.1869 42.5568 -70.7948V-74.66C42.5568 -75.2657 42.2122 -75.7887 41.7216 -76.0109V-75.1655C41.7216 -74.7385 41.3993 -74.3899 41 -74.3899C40.6007 -74.3899 40.2784 -74.7363 40.2784 -75.1655V-76.0109C39.7878 -75.7887 39.4432 -75.2679 39.4432 -74.66ZM39.4432 -85.4257V-81.5626C39.4432 -80.9547 39.7878 -80.434 40.2784 -80.2117V-81.0027C40.2784 -81.4297 40.6007 -81.7784 41 -81.7784C41.3993 -81.7784 41.7216 -81.4319 41.7216 -81.0027V-80.2117C42.2122 -80.434 42.5568 -80.9547 42.5568 -81.5626V-85.4257C42.5568 -86.0336 42.2122 -86.5544 41.7216 -86.7766V-86.2864C41.7216 -85.8593 41.3993 -85.5107 41 -85.5107C40.6007 -85.5107 40.2784 -85.8571 40.2784 -86.2864V-86.7766C39.7878 -86.5544 39.4432 -86.0336 39.4432 -85.4257ZM39.4432 -96.5008V-92.6355C39.4432 -92.0276 39.7878 -91.5069 40.2784 -91.2846V-92.1235C40.2784 -92.5506 40.6007 -92.8992 41 -92.8992C41.3993 -92.8992 41.7216 -92.5527 41.7216 -92.1235V-91.2846C42.2122 -91.5069 42.5568 -92.0276 42.5568 -92.6355V-96.5008C42.5568 -97.1065 42.2122 -97.6294 41.7216 -97.8517V-97.0063C41.7216 -96.5792 41.3993 -96.2306 41 -96.2306C40.6007 -96.2306 40.2784 -96.5771 40.2784 -97.0063V-97.8517C39.7878 -97.6294 39.4432 -97.1087 39.4432 -96.5008ZM39.4432 -107.596V-103.73C39.4432 -103.122 39.7878 -102.602 40.2784 -102.379V-102.843C40.2784 -103.273 40.6007 -103.619 41 -103.619C41.3993 -103.619 41.7216 -103.273 41.7216 -102.843V-102.379C42.2122 -102.602 42.5568 -103.122 42.5568 -103.73V-107.596C42.5568 -108.203 42.2122 -108.724 41.7216 -108.946V-108.456C41.7216 -108.029 41.3993 -107.68 41 -107.68C40.6007 -107.68 40.2784 -108.027 40.2784 -108.456V-108.946C39.7878 -108.724 39.4432 -108.203 39.4432 -107.596ZM39.4432 -118.668V-114.805C39.4432 -114.197 39.7878 -113.677 40.2784 -113.454V-114.293C40.2784 -114.72 40.6007 -115.069 41 -115.069C41.3993 -115.069 41.7216 -114.723 41.7216 -114.293V-113.454C42.2122 -113.677 42.5568 -114.197 42.5568 -114.805V-118.668C42.5568 -119.276 42.2122 -119.797 41.7216 -120.019V-119.174C41.7216 -118.747 41.3993 -118.398 41 -118.398C40.6007 -118.398 40.2784 -118.745 40.2784 -119.174V-120.019C39.7878 -119.797 39.4432 -119.276 39.4432 -118.668ZM39.4432 -129.436V-125.571C39.4432 -124.965 39.7878 -124.442 40.2784 -124.22V-125.011C40.2784 -125.438 40.6007 -125.787 41 -125.787C41.3993 -125.787 41.7216 -125.44 41.7216 -125.011V-124.22C42.2122 -124.442 42.5568 -124.963 42.5568 -125.571V-129.436C42.5568 -130.042 42.2122 -130.565 41.7216 -130.787V-130.297C41.7216 -129.87 41.3993 -129.521 41 -129.521C40.6007 -129.521 40.2784 -129.868 40.2784 -130.297V-130.787C39.7878 -130.565 39.4432 -130.044 39.4432 -129.436ZM39.4432 -140.509V-136.644C39.4432 -136.036 39.7878 -135.515 40.2784 -135.293V-136.132C40.2784 -136.559 40.6007 -136.908 41 -136.908C41.3993 -136.908 41.7216 -136.561 41.7216 -136.132V-135.293C42.2122 -135.515 42.5568 -136.036 42.5568 -136.644V-140.509C42.5568 -141.117 42.2122 -141.638 41.7216 -141.86V-141.015C41.7216 -140.585 41.3993 -140.239 41 -140.239C40.6007 -140.239 40.2784 -140.585 40.2784 -141.015V-141.86C39.7878 -141.638 39.4432 -141.115 39.4432 -140.509ZM39.4432 -151.423V-147.558C39.4432 -146.95 39.7878 -146.429 40.2784 -146.207V-146.85C40.2784 -147.277 40.6007 -147.625 41 -147.625C41.3993 -147.625 41.7216 -147.279 41.7216 -146.85V-146.207C42.2122 -146.429 42.5568 -146.952 42.5568 -147.558V-151.423C42.5568 -152.031 42.2122 -152.552 41.7216 -152.774V-152.284C41.7216 -151.857 41.3993 -151.508 41 -151.508C40.6007 -151.508 40.2784 -151.854 40.2784 -152.284V-152.774C39.7878 -152.552 39.4432 -152.031 39.4432 -151.423ZM39.4432 -162.498V-158.633C39.4432 -158.027 39.7878 -157.504 40.2784 -157.282V-158.121C40.2784 -158.55 40.6007 -158.896 41 -158.896C41.3993 -158.896 41.7216 -158.55 41.7216 -158.121V-157.282C42.2122 -157.504 42.5568 -158.025 42.5568 -158.633V-162.498C42.5568 -163.104 42.2122 -163.627 41.7216 -163.849V-163.004C41.7216 -162.577 41.3993 -162.228 41 -162.228C40.6007 -162.228 40.2784 -162.574 40.2784 -163.004V-163.849C39.7878 -163.627 39.4432 -163.106 39.4432 -162.498ZM39.4432 -173.264V-169.401C39.4432 -168.793 39.7878 -168.272 40.2784 -168.05V-168.841C40.2784 -169.268 40.6007 -169.616 41 -169.616C41.3993 -169.616 41.7216 -169.27 41.7216 -168.841V-168.05C42.2122 -168.272 42.5568 -168.793 42.5568 -169.401V-173.264C42.5568 -173.872 42.2122 -174.392 41.7216 -174.615V-174.124C41.7216 -173.697 41.3993 -173.349 41 -173.349C40.6007 -173.349 40.2784 -173.695 40.2784 -174.124V-174.615C39.7878 -174.392 39.4432 -173.872 39.4432 -173.264ZM39.4432 -184.339V-180.474C39.4432 -179.868 39.7878 -179.345 40.2784 -179.123V-179.962C40.2784 -180.389 40.6007 -180.737 41 -180.737C41.3993 -180.737 41.7216 -180.391 41.7216 -179.962V-179.123C42.2122 -179.345 42.5568 -179.866 42.5568 -180.474V-184.339C42.5568 -184.945 42.2122 -185.467 41.7216 -185.69V-184.844C41.7216 -184.417 41.3993 -184.069 41 -184.069C40.6007 -184.069 40.2784 -184.415 40.2784 -184.844V-185.69C39.7878 -185.467 39.4432 -184.947 39.4432 -184.339ZM39.4432 -195.401V-191.536C39.4432 -190.93 39.7878 -190.407 40.2784 -190.185V-190.679C40.2784 -191.106 40.6007 -191.455 41 -191.455C41.3993 -191.455 41.7216 -191.109 41.7216 -190.679V-190.185C42.2122 -190.407 42.5568 -190.928 42.5568 -191.536V-195.401C42.5568 -196.007 42.2122 -196.53 41.7216 -196.752V-196.262C41.7216 -195.832 41.3993 -195.486 41 -195.486C40.6007 -195.486 40.2784 -195.832 40.2784 -196.262V-196.752C39.7878 -196.53 39.4432 -196.009 39.4432 -195.401ZM39.4432 -206.476V-202.611C39.4432 -202.005 39.7878 -201.482 40.2784 -201.26V-202.099C40.2784 -202.526 40.6007 -202.874 41 -202.874C41.3993 -202.874 41.7216 -202.528 41.7216 -202.099V-201.26C42.2122 -201.482 42.5568 -202.003 42.5568 -202.611V-206.476C42.5568 -207.084 42.2122 -207.605 41.7216 -207.827V-206.981C41.7216 -206.552 41.3993 -206.206 41 -206.206C40.6007 -206.206 40.2784 -206.552 40.2784 -206.981V-207.827C39.7878 -207.605 39.4432 -207.084 39.4432 -206.476ZM39.4432 -217.244V-213.379C39.4432 -212.771 39.7878 -212.25 40.2784 -212.028V-212.819C40.2784 -213.248 40.6007 -213.594 41 -213.594C41.3993 -213.594 41.7216 -213.248 41.7216 -212.819V-212.028C42.2122 -212.25 42.5568 -212.771 42.5568 -213.379V-217.244C42.5568 -217.852 42.2122 -218.372 41.7216 -218.595V-218.104C41.7216 -217.675 41.3993 -217.329 41 -217.329C40.6007 -217.329 40.2784 -217.675 40.2784 -218.104V-218.595C39.7878 -218.372 39.4432 -217.852 39.4432 -217.244ZM39.4432 -228.317V-224.451C39.4432 -223.844 39.7878 -223.323 40.2784 -223.101V-223.939C40.2784 -224.369 40.6007 -224.715 41 -224.715C41.3993 -224.715 41.7216 -224.369 41.7216 -223.939V-223.101C42.2122 -223.323 42.5568 -223.844 42.5568 -224.451V-228.317C42.5568 -228.925 42.2122 -229.445 41.7216 -229.668V-228.822C41.7216 -228.393 41.3993 -228.047 41 -228.047C40.6007 -228.047 40.2784 -228.393 40.2784 -228.822V-229.668C39.7878 -229.445 39.4432 -228.925 39.4432 -228.317ZM39.4432 -239.231V-235.365C39.4432 -234.757 39.7878 -234.237 40.2784 -234.014V-234.657C40.2784 -235.086 40.6007 -235.433 41 -235.433C41.3993 -235.433 41.7216 -235.086 41.7216 -234.657V-234.014C42.2122 -234.237 42.5568 -234.757 42.5568 -235.365V-239.231C42.5568 -239.838 42.2122 -240.359 41.7216 -240.581V-240.091C41.7216 -239.662 41.3993 -239.316 41 -239.316C40.6007 -239.316 40.2784 -239.662 40.2784 -240.091V-240.581C39.7878 -240.359 39.4432 -239.838 39.4432 -239.231ZM39.4432 -250.306V-246.44C39.4432 -245.832 39.7878 -245.312 40.2784 -245.089V-245.928C40.2784 -246.358 40.6007 -246.704 41 -246.704C41.3993 -246.704 41.7216 -246.358 41.7216 -245.928V-245.089C42.2122 -245.312 42.5568 -245.832 42.5568 -246.44V-250.306C42.5568 -250.914 42.2122 -251.434 41.7216 -251.657V-250.811C41.7216 -250.382 41.3993 -250.035 41 -250.035C40.6007 -250.035 40.2784 -250.382 40.2784 -250.811V-251.657C39.7878 -251.434 39.4432 -250.914 39.4432 -250.306ZM39.4432 -261.074V-257.208C39.4432 -256.6 39.7878 -256.08 40.2784 -255.857V-256.648C40.2784 -257.078 40.6007 -257.424 41 -257.424C41.3993 -257.424 41.7216 -257.078 41.7216 -256.648V-255.857C42.2122 -256.08 42.5568 -256.6 42.5568 -257.208V-261.074C42.5568 -261.681 42.2122 -262.202 41.7216 -262.424V-261.934C41.7216 -261.505 41.3993 -261.158 41 -261.158C40.6007 -261.158 40.2784 -261.505 40.2784 -261.934V-262.424C39.7878 -262.202 39.4432 -261.681 39.4432 -261.074ZM39.4432 -272.146V-268.281C39.4432 -267.673 39.7878 -267.152 40.2784 -266.93V-267.769C40.2784 -268.198 40.6007 -268.545 41 -268.545C41.3993 -268.545 41.7216 -268.198 41.7216 -267.769V-266.93C42.2122 -267.152 42.5568 -267.673 42.5568 -268.281V-272.146C42.5568 -272.754 42.2122 -273.275 41.7216 -273.497V-272.652C41.7216 -272.223 41.3993 -271.876 41 -271.876C40.6007 -271.876 40.2784 -272.223 40.2784 -272.652V-273.497C39.7878 -273.275 39.4432 -272.754 39.4432 -272.146ZM39.4432 -283.241V-279.376C39.4432 -278.768 39.7878 -278.247 40.2784 -278.025V-278.487C40.2784 -278.916 40.6007 -279.263 41 -279.263C41.3993 -279.263 41.7216 -278.916 41.7216 -278.487V-278.025C42.2122 -278.247 42.5568 -278.768 42.5568 -279.376V-283.241C42.5568 -283.849 42.2122 -284.37 41.7216 -284.592V-284.102C41.7216 -283.673 41.3993 -283.326 41 -283.326C40.6007 -283.326 40.2784 -283.673 40.2784 -284.102V-284.592C39.7878 -284.37 39.4432 -283.849 39.4432 -283.241ZM39.4432 -294.316V-290.451C39.4432 -289.843 39.7878 -289.322 40.2784 -289.1V-289.939C40.2784 -290.368 40.6007 -290.715 41 -290.715C41.3993 -290.715 41.7216 -290.368 41.7216 -289.939V-289.1C42.2122 -289.322 42.5568 -289.843 42.5568 -290.451V-294.316C42.5568 -294.924 42.2122 -295.445 41.7216 -295.667V-294.822C41.7216 -294.392 41.3993 -294.046 41 -294.046C40.6007 -294.046 40.2784 -294.392 40.2784 -294.822V-295.667C39.7878 -295.445 39.4432 -294.924 39.4432 -294.316ZM39.4432 -305.082V-301.217C39.4432 -300.609 39.7878 -300.088 40.2784 -299.866V-300.657C40.2784 -301.086 40.6007 -301.432 41 -301.432C41.3993 -301.432 41.7216 -301.086 41.7216 -300.657V-299.866C42.2122 -300.088 42.5568 -300.609 42.5568 -301.217V-305.082C42.5568 -305.69 42.2122 -306.211 41.7216 -306.433V-305.943C41.7216 -305.513 41.3993 -305.167 41 -305.167C40.6007 -305.167 40.2784 -305.513 40.2784 -305.943V-306.433C39.7878 -306.211 39.4432 -305.69 39.4432 -305.082ZM39.4432 -316.157V-312.292C39.4432 -311.684 39.7878 -311.163 40.2784 -310.941V-311.78C40.2784 -312.209 40.6007 -312.555 41 -312.555C41.3993 -312.555 41.7216 -312.209 41.7216 -311.78V-310.941C42.2122 -311.163 42.5568 -311.684 42.5568 -312.292V-316.157C42.5568 -316.765 42.2122 -317.286 41.7216 -317.508V-316.662C41.7216 -316.233 41.3993 -315.887 41 -315.887C40.6007 -315.887 40.2784 -316.233 40.2784 -316.662V-317.508C39.7878 -317.286 39.4432 -316.765 39.4432 -316.157ZM39.4432 -327.071V-323.206C39.4432 -322.598 39.7878 -322.077 40.2784 -321.855V-322.497C40.2784 -322.927 40.6007 -323.273 41 -323.273C41.3993 -323.273 41.7216 -322.927 41.7216 -322.497V-321.855C42.2122 -322.077 42.5568 -322.598 42.5568 -323.206V-327.071C42.5568 -327.679 42.2122 -328.199 41.7216 -328.422V-327.931C41.7216 -327.502 41.3993 -327.156 41 -327.156C40.6007 -327.156 40.2784 -327.502 40.2784 -327.931V-328.422C39.7878 -328.199 39.4432 -327.679 39.4432 -327.071ZM39.4432 -338.146V-334.281C39.4432 -333.673 39.7878 -333.152 40.2784 -332.93V-333.769C40.2784 -334.198 40.6007 -334.544 41 -334.544C41.3993 -334.544 41.7216 -334.198 41.7216 -333.769V-332.93C42.2122 -333.152 42.5568 -333.673 42.5568 -334.281V-338.146C42.5568 -338.754 42.2122 -339.275 41.7216 -339.497V-338.651C41.7216 -338.222 41.3993 -337.876 41 -337.876C40.6007 -337.876 40.2784 -338.222 40.2784 -338.651V-339.497C39.7878 -339.275 39.4432 -338.754 39.4432 -338.146ZM39.4432 -348.914V-345.048C39.4432 -344.441 39.7878 -343.92 40.2784 -343.698V-344.489C40.2784 -344.918 40.6007 -345.264 41 -345.264C41.3993 -345.264 41.7216 -344.918 41.7216 -344.489V-343.698C42.2122 -343.92 42.5568 -344.441 42.5568 -345.048V-348.914C42.5568 -349.522 42.2122 -350.042 41.7216 -350.265V-349.774C41.7216 -349.345 41.3993 -348.999 41 -348.999C40.6007 -348.999 40.2784 -349.345 40.2784 -349.774V-350.265C39.7878 -350.042 39.4432 -349.522 39.4432 -348.914Z" fill="#7B7B7B"/>
<path d="M454 -354.119V-357.984C454 -359.647 455.259 -361 456.807 -361H457.195C458.741 -361 460 -359.647 460 -357.984V-354.119C460 -352.651 459.017 -351.424 457.722 -351.158V-349.87C459.017 -349.605 460 -348.378 460 -346.909V-343.044C460 -341.576 459.017 -340.349 457.722 -340.083V-339.103C459.017 -338.837 460 -337.61 460 -336.142V-332.276C460 -330.808 459.017 -329.581 457.722 -329.315V-328.028C459.017 -327.762 460 -326.535 460 -325.066V-321.201C460 -319.733 459.017 -318.506 457.722 -318.24V-317.114C459.017 -316.848 460 -315.621 460 -314.153V-310.287C460 -308.819 459.017 -307.592 457.722 -307.326V-306.039C459.017 -305.773 460 -304.546 460 -303.078V-299.212C460 -297.744 459.017 -296.517 457.722 -296.251V-295.271C459.017 -295.005 460 -293.778 460 -292.31V-288.444C460 -286.976 459.017 -285.749 457.722 -285.483V-284.196C459.017 -283.93 460 -282.703 460 -281.235V-277.369C460 -275.901 459.017 -274.674 457.722 -274.408V-273.101C459.017 -272.835 460 -271.608 460 -270.14V-266.275C460 -264.806 459.017 -263.579 457.722 -263.314V-262.026C459.017 -261.76 460 -260.533 460 -259.065V-255.2C460 -253.731 459.017 -252.504 457.722 -252.238V-251.258C459.017 -250.992 460 -249.765 460 -248.297V-244.432C460 -242.963 459.017 -241.736 457.722 -241.471V-240.183C459.017 -239.917 460 -238.69 460 -237.222V-233.357C460 -231.888 459.017 -230.661 457.722 -230.396V-229.267C459.017 -229.001 460 -227.774 460 -226.306V-222.441C460 -220.972 459.017 -219.745 457.722 -219.479V-218.192C459.017 -217.926 460 -216.699 460 -215.231V-211.365C460 -209.897 459.017 -208.67 457.722 -208.404V-207.424C459.017 -207.158 460 -205.931 460 -204.463V-200.598C460 -199.129 459.017 -197.902 457.722 -197.637V-196.349C459.017 -196.083 460 -194.856 460 -193.388V-189.523C460 -188.054 459.017 -186.827 457.722 -186.561V-185.287C459.017 -185.021 460 -183.794 460 -182.326V-178.461C460 -176.992 459.017 -175.765 457.722 -175.499V-174.212C459.017 -173.946 460 -172.719 460 -171.251V-167.388C460 -165.919 459.017 -164.692 457.722 -164.427V-163.446C459.017 -163.18 460 -161.954 460 -160.485V-156.62C460 -155.151 459.017 -153.925 457.722 -153.659V-152.371C459.017 -152.105 460 -150.878 460 -149.41V-145.545C460 -144.076 459.017 -142.849 457.722 -142.584V-141.457C459.017 -141.191 460 -139.965 460 -138.496V-134.631C460 -133.162 459.017 -131.936 457.722 -131.67V-130.382C459.017 -130.116 460 -128.89 460 -127.421V-123.556C460 -122.087 459.017 -120.861 457.722 -120.595V-119.614C459.017 -119.348 460 -118.122 460 -116.653V-112.79C460 -111.322 459.017 -110.095 457.722 -109.829V-108.541C459.017 -108.275 460 -107.049 460 -105.58V-101.715C460 -100.246 459.017 -99.0197 457.722 -98.7539V-97.4466C459.017 -97.1808 460 -95.9541 460 -94.4856V-90.6203C460 -89.1517 459.017 -87.925 457.722 -87.6592V-86.3715C459.017 -86.1057 460 -84.879 460 -83.4105V-79.5474C460 -78.0788 459.017 -76.8521 457.722 -76.5863V-75.6058C459.017 -75.34 460 -74.1133 460 -72.6448V-68.7795C460 -67.3109 459.017 -66.0843 457.722 -65.8185V-64.5308C459.017 -64.2649 460 -63.0382 460 -61.5697V-57.7044C460 -56.2359 459.017 -55.0092 457.722 -54.7434V-53.6169C459.017 -53.3511 460 -52.1244 460 -50.6559V-46.7928C460 -45.3242 459.017 -44.0975 457.722 -43.8317V-42.544C459.017 -42.2782 460 -41.0515 460 -39.5829V-35.7177C460 -34.2491 459.017 -33.0224 457.722 -32.7566V-31.7762C459.017 -31.5103 460 -30.2836 460 -28.8151V-24.952C460 -23.4813 459.017 -22.2567 457.722 -21.9909V-20.7032C459.017 -20.4374 460 -19.2107 460 -17.7422V-13.8769C460 -12.4084 459.017 -11.1817 457.722 -10.9159V-9.68045C459.017 -9.41461 460 -8.18793 460 -6.71939V-2.85413C460 -1.38559 459.017 -0.158905 457.722 0.106934V1.39462C459.017 1.66046 460 2.88715 460 4.35568V8.21878C460 9.68735 459.017 10.914 457.722 11.1798V12.1603C459.017 12.4261 460 13.6528 460 15.1214V18.9845C460 20.6491 458.741 22 457.195 22H456.807C455.261 22 454.002 20.6469 454.002 18.9845V15.1214C454.002 13.6506 454.985 12.4261 456.28 12.1603V11.1798C454.985 10.914 454.002 9.68735 454.002 8.21878V4.35568C454.002 2.88715 454.985 1.66046 456.28 1.39462V0.106934C454.985 -0.158905 454.002 -1.38559 454.002 -2.85413V-6.71939C454.002 -8.18793 454.985 -9.41461 456.28 -9.68045V-10.9159C454.985 -11.1817 454.002 -12.4084 454.002 -13.8769V-17.7422C454.002 -19.2107 454.985 -20.4374 456.28 -20.7032V-21.9909C454.985 -22.2567 454.002 -23.4835 454.002 -24.952V-28.8151C454.002 -30.2836 454.985 -31.5103 456.28 -31.7762V-32.7566C454.985 -33.0224 454.002 -34.2491 454.002 -35.7177V-39.5829C454.002 -41.0515 454.985 -42.2782 456.28 -42.544V-43.8317C454.985 -44.0975 454.002 -45.3242 454.002 -46.7928V-50.6559C454.002 -52.1244 454.985 -53.3511 456.28 -53.6169V-54.7434C454.985 -55.0092 454.002 -56.2359 454.002 -57.7044V-61.5697C454.002 -63.0382 454.985 -64.2649 456.28 -64.5308V-65.8185C454.985 -66.0843 454.002 -67.3109 454.002 -68.7795V-72.6448C454.002 -74.1133 454.985 -75.34 456.28 -75.6058V-76.5863C454.985 -76.8521 454.002 -78.0788 454.002 -79.5474V-83.4105C454.002 -84.879 454.985 -86.1057 456.28 -86.3715V-87.6592C454.985 -87.925 454.002 -89.1517 454.002 -90.6203V-94.4856C454.002 -95.9541 454.985 -97.1808 456.28 -97.4466V-98.7539C454.985 -99.0197 454.002 -100.246 454.002 -101.715V-105.58C454.002 -107.049 454.985 -108.275 456.28 -108.541V-109.829C454.985 -110.095 454.002 -111.322 454.002 -112.79V-116.653C454.002 -118.124 454.985 -119.348 456.28 -119.614V-120.595C454.985 -120.861 454.002 -122.087 454.002 -123.556V-127.421C454.002 -128.89 454.985 -130.116 456.28 -130.382V-131.67C454.985 -131.936 454.002 -133.162 454.002 -134.631V-138.496C454.002 -139.965 454.985 -141.191 456.28 -141.457V-142.584C454.985 -142.849 454.002 -144.076 454.002 -145.545V-149.41C454.002 -150.878 454.985 -152.105 456.28 -152.371V-153.659C454.985 -153.925 454.002 -155.151 454.002 -156.62V-160.485C454.002 -161.954 454.985 -163.18 456.28 -163.446V-164.427C454.985 -164.692 454.002 -165.919 454.002 -167.388V-171.251C454.002 -172.719 454.985 -173.946 456.28 -174.212V-175.499C454.985 -175.765 454.002 -176.992 454.002 -178.461V-182.326C454.002 -183.794 454.985 -185.021 456.28 -185.287V-186.561C454.985 -186.827 454.002 -188.054 454.002 -189.523V-193.388C454.002 -194.856 454.985 -196.083 456.28 -196.349V-197.637C454.985 -197.902 454.002 -199.129 454.002 -200.598V-204.463C454.002 -205.931 454.985 -207.158 456.28 -207.424V-208.404C454.985 -208.67 454.002 -209.897 454.002 -211.365V-215.231C454.002 -216.699 454.985 -217.926 456.28 -218.192V-219.479C454.985 -219.745 454.002 -220.972 454.002 -222.441V-226.306C454.002 -227.774 454.985 -229.001 456.28 -229.267V-230.396C454.985 -230.661 454.002 -231.888 454.002 -233.357V-237.222C454.002 -238.69 454.985 -239.917 456.28 -240.183V-241.471C454.985 -241.736 454.002 -242.963 454.002 -244.432V-248.297C454.002 -249.765 454.985 -250.992 456.28 -251.258V-252.238C454.985 -252.504 454.002 -253.731 454.002 -255.2V-259.065C454.002 -260.533 454.985 -261.76 456.28 -262.026V-263.314C454.985 -263.579 454.002 -264.806 454.002 -266.275V-270.14C454.002 -271.608 454.985 -272.835 456.28 -273.101V-274.408C454.985 -274.674 454.002 -275.901 454.002 -277.369V-281.235C454.002 -282.703 454.985 -283.93 456.28 -284.196V-285.483C454.985 -285.749 454.002 -286.976 454.002 -288.444V-292.31C454.002 -293.778 454.985 -295.005 456.28 -295.271V-296.251C454.985 -296.517 454.002 -297.744 454.002 -299.212V-303.078C454.002 -304.546 454.985 -305.773 456.28 -306.039V-307.326C454.985 -307.592 454.002 -308.819 454.002 -310.287V-314.153C454.002 -315.621 454.985 -316.848 456.28 -317.114V-318.24C454.985 -318.506 454.002 -319.733 454.002 -321.201V-325.066C454.002 -326.535 454.985 -327.762 456.28 -328.028V-329.315C454.985 -329.581 454.002 -330.808 454.002 -332.276V-336.142C454.002 -337.61 454.985 -338.837 456.28 -339.103V-340.083C454.985 -340.349 454.002 -341.576 454.002 -343.044V-346.909C454.002 -348.378 454.985 -349.605 456.28 -349.87V-351.158C454.985 -351.424 454.002 -352.651 454.002 -354.119H454ZM458.557 -354.119V-357.984C458.557 -358.793 457.945 -359.451 457.193 -359.451H456.805C456.053 -359.451 455.441 -358.793 455.441 -357.984V-354.119C455.441 -353.511 455.786 -352.991 456.276 -352.768V-353.607C456.276 -354.036 456.599 -354.383 456.998 -354.383C457.397 -354.383 457.72 -354.036 457.72 -353.607V-352.768C458.21 -352.991 458.555 -353.511 458.555 -354.119H458.557ZM455.443 15.1061V18.9692C455.443 19.7776 456.055 20.4356 456.807 20.4356H457.195C457.947 20.4356 458.559 19.7776 458.559 18.9692V15.1061C458.559 14.4982 458.214 13.9775 457.724 13.7552V14.6006C457.724 15.0298 457.401 15.3763 457.002 15.3763C456.603 15.3763 456.28 15.0298 456.28 14.6006V13.7552C455.79 13.9775 455.445 14.4982 455.445 15.1061H455.443ZM455.443 4.34042V8.20352C455.443 8.81143 455.788 9.33215 456.278 9.55441V8.76352C456.278 8.33426 456.601 7.98782 457 7.98782C457.399 7.98782 457.722 8.33426 457.722 8.76352V9.55441C458.212 9.33215 458.557 8.81143 458.557 8.20352V4.34042C458.557 3.73254 458.212 3.21179 457.722 2.98956V3.4798C457.722 3.90686 457.399 4.25546 457 4.25546C456.601 4.25546 456.278 3.90903 456.278 3.4798V2.98956C455.788 3.21179 455.443 3.73254 455.443 4.34042ZM455.443 -6.73465V-2.86935C455.443 -2.26147 455.788 -1.74072 456.278 -1.51849V-2.35733C456.278 -2.78439 456.601 -3.13303 457 -3.13303C457.399 -3.13303 457.722 -2.78656 457.722 -2.35733V-1.51849C458.212 -1.74072 458.557 -2.26364 458.557 -2.86935V-6.73465C458.557 -7.34253 458.212 -7.86331 457.722 -8.08554V-7.24014C457.722 -6.81308 457.399 -6.46448 457 -6.46448C456.601 -6.46448 456.278 -6.81091 456.278 -7.24014V-8.08554C455.788 -7.86331 455.443 -7.34036 455.443 -6.73465ZM455.443 -17.7574V-13.8922C455.443 -13.2843 455.788 -12.7635 456.278 -12.5413V-13.0773C456.278 -13.5043 456.601 -13.8529 457 -13.8529C457.399 -13.8529 457.722 -13.5065 457.722 -13.0773V-12.5413C458.212 -12.7635 458.557 -13.2865 458.557 -13.8922V-17.7574C458.557 -18.3654 458.212 -18.8861 457.722 -19.1083V-18.6181C457.722 -18.191 457.399 -17.8424 457 -17.8424C456.601 -17.8424 456.278 -18.1888 456.278 -18.6181V-19.1083C455.788 -18.8861 455.443 -18.3654 455.443 -17.7574ZM455.443 -28.8304V-24.9673C455.443 -24.3593 455.788 -23.8386 456.278 -23.6164V-24.4552C456.278 -24.8823 456.601 -25.2309 457 -25.2309C457.399 -25.2309 457.722 -24.8845 457.722 -24.4552V-23.6164C458.212 -23.8386 458.557 -24.3593 458.557 -24.9673V-28.8304C458.557 -29.4382 458.212 -29.959 457.722 -30.1812V-29.3358C457.722 -28.9066 457.399 -28.5602 457 -28.5602C456.601 -28.5602 456.278 -28.9066 456.278 -29.3358V-30.1812C455.788 -29.959 455.443 -29.4382 455.443 -28.8304ZM455.443 -39.5982V-35.7329C455.443 -35.1272 455.788 -34.6043 456.278 -34.382V-35.173C456.278 -35.6 456.601 -35.9486 457 -35.9486C457.399 -35.9486 457.722 -35.6022 457.722 -35.173V-34.382C458.212 -34.6043 458.557 -35.125 458.557 -35.7329V-39.5982C458.557 -40.2061 458.212 -40.7268 457.722 -40.9491V-40.4588C457.722 -40.0296 457.399 -39.6832 457 -39.6832C456.601 -39.6832 456.278 -40.0296 456.278 -40.4588V-40.9491C455.788 -40.7268 455.443 -40.2061 455.443 -39.5982ZM455.443 -50.6711V-46.808C455.443 -46.2001 455.788 -45.6794 456.278 -45.4571V-46.296C456.278 -46.7231 456.601 -47.0717 457 -47.0717C457.399 -47.0717 457.722 -46.7231 457.722 -46.296V-45.4571C458.212 -45.6794 458.557 -46.2001 458.557 -46.808V-50.6711C458.557 -51.279 458.212 -51.7998 457.722 -52.022V-51.1766C457.722 -50.7495 457.399 -50.4009 457 -50.4009C456.601 -50.4009 456.278 -50.7474 456.278 -51.1766V-52.022C455.788 -51.7998 455.443 -51.279 455.443 -50.6711ZM455.443 -61.585V-57.7197C455.443 -57.1118 455.788 -56.591 456.278 -56.3688V-57.0115C456.278 -57.4386 456.601 -57.7872 457 -57.7872C457.399 -57.7872 457.722 -57.4408 457.722 -57.0115V-56.3688C458.212 -56.591 458.557 -57.1118 458.557 -57.7197V-61.585C458.557 -62.1929 458.212 -62.7136 457.722 -62.9359V-62.4456C457.722 -62.0186 457.399 -61.6699 457 -61.6699C456.601 -61.6699 456.278 -62.0164 456.278 -62.4456V-62.9359C455.788 -62.7136 455.443 -62.1907 455.443 -61.585ZM455.443 -72.66V-68.7948C455.443 -68.1891 455.788 -67.6661 456.278 -67.4439V-68.2827C456.278 -68.7098 456.601 -69.0584 457 -69.0584C457.399 -69.0584 457.722 -68.712 457.722 -68.2827V-67.4439C458.212 -67.6661 458.557 -68.1869 458.557 -68.7948V-72.66C458.557 -73.2657 458.212 -73.7887 457.722 -74.0109V-73.1655C457.722 -72.7385 457.399 -72.3899 457 -72.3899C456.601 -72.3899 456.278 -72.7363 456.278 -73.1655V-74.0109C455.788 -73.7887 455.443 -73.2679 455.443 -72.66ZM455.443 -83.4257V-79.5626C455.443 -78.9547 455.788 -78.434 456.278 -78.2117V-79.0027C456.278 -79.4297 456.601 -79.7784 457 -79.7784C457.399 -79.7784 457.722 -79.4319 457.722 -79.0027V-78.2117C458.212 -78.434 458.557 -78.9547 458.557 -79.5626V-83.4257C458.557 -84.0336 458.212 -84.5544 457.722 -84.7766V-84.2864C457.722 -83.8593 457.399 -83.5107 457 -83.5107C456.601 -83.5107 456.278 -83.8571 456.278 -84.2864V-84.7766C455.788 -84.5544 455.443 -84.0336 455.443 -83.4257ZM455.443 -94.5008V-90.6355C455.443 -90.0276 455.788 -89.5069 456.278 -89.2846V-90.1235C456.278 -90.5506 456.601 -90.8992 457 -90.8992C457.399 -90.8992 457.722 -90.5527 457.722 -90.1235V-89.2846C458.212 -89.5069 458.557 -90.0276 458.557 -90.6355V-94.5008C458.557 -95.1065 458.212 -95.6294 457.722 -95.8517V-95.0063C457.722 -94.5792 457.399 -94.2306 457 -94.2306C456.601 -94.2306 456.278 -94.5771 456.278 -95.0063V-95.8517C455.788 -95.6294 455.443 -95.1087 455.443 -94.5008ZM455.443 -105.596V-101.73C455.443 -101.122 455.788 -100.602 456.278 -100.379V-100.843C456.278 -101.273 456.601 -101.619 457 -101.619C457.399 -101.619 457.722 -101.273 457.722 -100.843V-100.379C458.212 -100.602 458.557 -101.122 458.557 -101.73V-105.596C458.557 -106.203 458.212 -106.724 457.722 -106.946V-106.456C457.722 -106.029 457.399 -105.68 457 -105.68C456.601 -105.68 456.278 -106.027 456.278 -106.456V-106.946C455.788 -106.724 455.443 -106.203 455.443 -105.596ZM455.443 -116.668V-112.805C455.443 -112.197 455.788 -111.677 456.278 -111.454V-112.293C456.278 -112.72 456.601 -113.069 457 -113.069C457.399 -113.069 457.722 -112.723 457.722 -112.293V-111.454C458.212 -111.677 458.557 -112.197 458.557 -112.805V-116.668C458.557 -117.276 458.212 -117.797 457.722 -118.019V-117.174C457.722 -116.747 457.399 -116.398 457 -116.398C456.601 -116.398 456.278 -116.745 456.278 -117.174V-118.019C455.788 -117.797 455.443 -117.276 455.443 -116.668ZM455.443 -127.436V-123.571C455.443 -122.965 455.788 -122.442 456.278 -122.22V-123.011C456.278 -123.438 456.601 -123.787 457 -123.787C457.399 -123.787 457.722 -123.44 457.722 -123.011V-122.22C458.212 -122.442 458.557 -122.963 458.557 -123.571V-127.436C458.557 -128.042 458.212 -128.565 457.722 -128.787V-128.297C457.722 -127.87 457.399 -127.521 457 -127.521C456.601 -127.521 456.278 -127.868 456.278 -128.297V-128.787C455.788 -128.565 455.443 -128.044 455.443 -127.436ZM455.443 -138.509V-134.644C455.443 -134.036 455.788 -133.515 456.278 -133.293V-134.132C456.278 -134.559 456.601 -134.908 457 -134.908C457.399 -134.908 457.722 -134.561 457.722 -134.132V-133.293C458.212 -133.515 458.557 -134.036 458.557 -134.644V-138.509C458.557 -139.117 458.212 -139.638 457.722 -139.86V-139.015C457.722 -138.585 457.399 -138.239 457 -138.239C456.601 -138.239 456.278 -138.585 456.278 -139.015V-139.86C455.788 -139.638 455.443 -139.115 455.443 -138.509ZM455.443 -149.423V-145.558C455.443 -144.95 455.788 -144.429 456.278 -144.207V-144.85C456.278 -145.277 456.601 -145.625 457 -145.625C457.399 -145.625 457.722 -145.279 457.722 -144.85V-144.207C458.212 -144.429 458.557 -144.952 458.557 -145.558V-149.423C458.557 -150.031 458.212 -150.552 457.722 -150.774V-150.284C457.722 -149.857 457.399 -149.508 457 -149.508C456.601 -149.508 456.278 -149.854 456.278 -150.284V-150.774C455.788 -150.552 455.443 -150.031 455.443 -149.423ZM455.443 -160.498V-156.633C455.443 -156.027 455.788 -155.504 456.278 -155.282V-156.121C456.278 -156.55 456.601 -156.896 457 -156.896C457.399 -156.896 457.722 -156.55 457.722 -156.121V-155.282C458.212 -155.504 458.557 -156.025 458.557 -156.633V-160.498C458.557 -161.104 458.212 -161.627 457.722 -161.849V-161.004C457.722 -160.577 457.399 -160.228 457 -160.228C456.601 -160.228 456.278 -160.574 456.278 -161.004V-161.849C455.788 -161.627 455.443 -161.106 455.443 -160.498ZM455.443 -171.264V-167.401C455.443 -166.793 455.788 -166.272 456.278 -166.05V-166.841C456.278 -167.268 456.601 -167.616 457 -167.616C457.399 -167.616 457.722 -167.27 457.722 -166.841V-166.05C458.212 -166.272 458.557 -166.793 458.557 -167.401V-171.264C458.557 -171.872 458.212 -172.392 457.722 -172.615V-172.124C457.722 -171.697 457.399 -171.349 457 -171.349C456.601 -171.349 456.278 -171.695 456.278 -172.124V-172.615C455.788 -172.392 455.443 -171.872 455.443 -171.264ZM455.443 -182.339V-178.474C455.443 -177.868 455.788 -177.345 456.278 -177.123V-177.962C456.278 -178.389 456.601 -178.737 457 -178.737C457.399 -178.737 457.722 -178.391 457.722 -177.962V-177.123C458.212 -177.345 458.557 -177.866 458.557 -178.474V-182.339C458.557 -182.945 458.212 -183.467 457.722 -183.69V-182.844C457.722 -182.417 457.399 -182.069 457 -182.069C456.601 -182.069 456.278 -182.415 456.278 -182.844V-183.69C455.788 -183.467 455.443 -182.947 455.443 -182.339ZM455.443 -193.401V-189.536C455.443 -188.93 455.788 -188.407 456.278 -188.185V-188.679C456.278 -189.106 456.601 -189.455 457 -189.455C457.399 -189.455 457.722 -189.109 457.722 -188.679V-188.185C458.212 -188.407 458.557 -188.928 458.557 -189.536V-193.401C458.557 -194.007 458.212 -194.53 457.722 -194.752V-194.262C457.722 -193.832 457.399 -193.486 457 -193.486C456.601 -193.486 456.278 -193.832 456.278 -194.262V-194.752C455.788 -194.53 455.443 -194.009 455.443 -193.401ZM455.443 -204.476V-200.611C455.443 -200.005 455.788 -199.482 456.278 -199.26V-200.099C456.278 -200.526 456.601 -200.874 457 -200.874C457.399 -200.874 457.722 -200.528 457.722 -200.099V-199.26C458.212 -199.482 458.557 -200.003 458.557 -200.611V-204.476C458.557 -205.084 458.212 -205.605 457.722 -205.827V-204.981C457.722 -204.552 457.399 -204.206 457 -204.206C456.601 -204.206 456.278 -204.552 456.278 -204.981V-205.827C455.788 -205.605 455.443 -205.084 455.443 -204.476ZM455.443 -215.244V-211.379C455.443 -210.771 455.788 -210.25 456.278 -210.028V-210.819C456.278 -211.248 456.601 -211.594 457 -211.594C457.399 -211.594 457.722 -211.248 457.722 -210.819V-210.028C458.212 -210.25 458.557 -210.771 458.557 -211.379V-215.244C458.557 -215.852 458.212 -216.372 457.722 -216.595V-216.104C457.722 -215.675 457.399 -215.329 457 -215.329C456.601 -215.329 456.278 -215.675 456.278 -216.104V-216.595C455.788 -216.372 455.443 -215.852 455.443 -215.244ZM455.443 -226.317V-222.451C455.443 -221.844 455.788 -221.323 456.278 -221.101V-221.939C456.278 -222.369 456.601 -222.715 457 -222.715C457.399 -222.715 457.722 -222.369 457.722 -221.939V-221.101C458.212 -221.323 458.557 -221.844 458.557 -222.451V-226.317C458.557 -226.925 458.212 -227.445 457.722 -227.668V-226.822C457.722 -226.393 457.399 -226.047 457 -226.047C456.601 -226.047 456.278 -226.393 456.278 -226.822V-227.668C455.788 -227.445 455.443 -226.925 455.443 -226.317ZM455.443 -237.231V-233.365C455.443 -232.757 455.788 -232.237 456.278 -232.014V-232.657C456.278 -233.086 456.601 -233.433 457 -233.433C457.399 -233.433 457.722 -233.086 457.722 -232.657V-232.014C458.212 -232.237 458.557 -232.757 458.557 -233.365V-237.231C458.557 -237.838 458.212 -238.359 457.722 -238.581V-238.091C457.722 -237.662 457.399 -237.316 457 -237.316C456.601 -237.316 456.278 -237.662 456.278 -238.091V-238.581C455.788 -238.359 455.443 -237.838 455.443 -237.231ZM455.443 -248.306V-244.44C455.443 -243.832 455.788 -243.312 456.278 -243.089V-243.928C456.278 -244.358 456.601 -244.704 457 -244.704C457.399 -244.704 457.722 -244.358 457.722 -243.928V-243.089C458.212 -243.312 458.557 -243.832 458.557 -244.44V-248.306C458.557 -248.914 458.212 -249.434 457.722 -249.657V-248.811C457.722 -248.382 457.399 -248.035 457 -248.035C456.601 -248.035 456.278 -248.382 456.278 -248.811V-249.657C455.788 -249.434 455.443 -248.914 455.443 -248.306ZM455.443 -259.074V-255.208C455.443 -254.6 455.788 -254.08 456.278 -253.857V-254.648C456.278 -255.078 456.601 -255.424 457 -255.424C457.399 -255.424 457.722 -255.078 457.722 -254.648V-253.857C458.212 -254.08 458.557 -254.6 458.557 -255.208V-259.074C458.557 -259.681 458.212 -260.202 457.722 -260.424V-259.934C457.722 -259.505 457.399 -259.158 457 -259.158C456.601 -259.158 456.278 -259.505 456.278 -259.934V-260.424C455.788 -260.202 455.443 -259.681 455.443 -259.074ZM455.443 -270.146V-266.281C455.443 -265.673 455.788 -265.152 456.278 -264.93V-265.769C456.278 -266.198 456.601 -266.545 457 -266.545C457.399 -266.545 457.722 -266.198 457.722 -265.769V-264.93C458.212 -265.152 458.557 -265.673 458.557 -266.281V-270.146C458.557 -270.754 458.212 -271.275 457.722 -271.497V-270.652C457.722 -270.223 457.399 -269.876 457 -269.876C456.601 -269.876 456.278 -270.223 456.278 -270.652V-271.497C455.788 -271.275 455.443 -270.754 455.443 -270.146ZM455.443 -281.241V-277.376C455.443 -276.768 455.788 -276.247 456.278 -276.025V-276.487C456.278 -276.916 456.601 -277.263 457 -277.263C457.399 -277.263 457.722 -276.916 457.722 -276.487V-276.025C458.212 -276.247 458.557 -276.768 458.557 -277.376V-281.241C458.557 -281.849 458.212 -282.37 457.722 -282.592V-282.102C457.722 -281.673 457.399 -281.326 457 -281.326C456.601 -281.326 456.278 -281.673 456.278 -282.102V-282.592C455.788 -282.37 455.443 -281.849 455.443 -281.241ZM455.443 -292.316V-288.451C455.443 -287.843 455.788 -287.322 456.278 -287.1V-287.939C456.278 -288.368 456.601 -288.715 457 -288.715C457.399 -288.715 457.722 -288.368 457.722 -287.939V-287.1C458.212 -287.322 458.557 -287.843 458.557 -288.451V-292.316C458.557 -292.924 458.212 -293.445 457.722 -293.667V-292.822C457.722 -292.392 457.399 -292.046 457 -292.046C456.601 -292.046 456.278 -292.392 456.278 -292.822V-293.667C455.788 -293.445 455.443 -292.924 455.443 -292.316ZM455.443 -303.082V-299.217C455.443 -298.609 455.788 -298.088 456.278 -297.866V-298.657C456.278 -299.086 456.601 -299.432 457 -299.432C457.399 -299.432 457.722 -299.086 457.722 -298.657V-297.866C458.212 -298.088 458.557 -298.609 458.557 -299.217V-303.082C458.557 -303.69 458.212 -304.211 457.722 -304.433V-303.943C457.722 -303.513 457.399 -303.167 457 -303.167C456.601 -303.167 456.278 -303.513 456.278 -303.943V-304.433C455.788 -304.211 455.443 -303.69 455.443 -303.082ZM455.443 -314.157V-310.292C455.443 -309.684 455.788 -309.163 456.278 -308.941V-309.78C456.278 -310.209 456.601 -310.555 457 -310.555C457.399 -310.555 457.722 -310.209 457.722 -309.78V-308.941C458.212 -309.163 458.557 -309.684 458.557 -310.292V-314.157C458.557 -314.765 458.212 -315.286 457.722 -315.508V-314.662C457.722 -314.233 457.399 -313.887 457 -313.887C456.601 -313.887 456.278 -314.233 456.278 -314.662V-315.508C455.788 -315.286 455.443 -314.765 455.443 -314.157ZM455.443 -325.071V-321.206C455.443 -320.598 455.788 -320.077 456.278 -319.855V-320.497C456.278 -320.927 456.601 -321.273 457 -321.273C457.399 -321.273 457.722 -320.927 457.722 -320.497V-319.855C458.212 -320.077 458.557 -320.598 458.557 -321.206V-325.071C458.557 -325.679 458.212 -326.199 457.722 -326.422V-325.931C457.722 -325.502 457.399 -325.156 457 -325.156C456.601 -325.156 456.278 -325.502 456.278 -325.931V-326.422C455.788 -326.199 455.443 -325.679 455.443 -325.071ZM455.443 -336.146V-332.281C455.443 -331.673 455.788 -331.152 456.278 -330.93V-331.769C456.278 -332.198 456.601 -332.544 457 -332.544C457.399 -332.544 457.722 -332.198 457.722 -331.769V-330.93C458.212 -331.152 458.557 -331.673 458.557 -332.281V-336.146C458.557 -336.754 458.212 -337.275 457.722 -337.497V-336.651C457.722 -336.222 457.399 -335.876 457 -335.876C456.601 -335.876 456.278 -336.222 456.278 -336.651V-337.497C455.788 -337.275 455.443 -336.754 455.443 -336.146ZM455.443 -346.914V-343.048C455.443 -342.441 455.788 -341.92 456.278 -341.698V-342.489C456.278 -342.918 456.601 -343.264 457 -343.264C457.399 -343.264 457.722 -342.918 457.722 -342.489V-341.698C458.212 -341.92 458.557 -342.441 458.557 -343.048V-346.914C458.557 -347.522 458.212 -348.042 457.722 -348.265V-347.774C457.722 -347.345 457.399 -346.999 457 -346.999C456.601 -346.999 456.278 -347.345 456.278 -347.774V-348.265C455.788 -348.042 455.443 -347.522 455.443 -346.914Z" fill="#7B7B7B"/>
<defs>
<filter id="filter0_i_292_5" x="0" y="13" width="500" height="100" filterUnits="userSpaceOnUse" color-interpolation-filters="sRGB">
<feFlood flood-opacity="0" result="BackgroundImageFix"/>
<feBlend mode="normal" in="SourceGraphic" in2="BackgroundImageFix" result="shape"/>
<feColorMatrix in="SourceAlpha" type="matrix" values="0 0 0 0 0 0 0 0 0 0 0 0 0 0 0 0 0 0 127 0" result="hardAlpha"/>
<feOffset dy="9"/>
<feGaussianBlur stdDeviation="5.4"/>
<feComposite in2="hardAlpha" operator="arithmetic" k2="-1" k3="1"/>
<feColorMatrix type="matrix" values="0 0 0 0 1 0 0 0 0 1 0 0 0 0 1 0 0 0 0.25 0"/>
<feBlend mode="normal" in2="shape" result="effect1_innerShadow_292_5"/>
</filter>
</defs>
</svg>
