<svg width="298" height="107" viewBox="0 0 298 107" fill="none" xmlns="http://www.w3.org/2000/svg">
<g filter="url(#filter0_i_219_780)">
<rect x="2" y="36" width="294" height="69" rx="10" fill="#EAAF9E"/>
</g>
<rect x="1" y="35" width="296" height="71" rx="11" stroke="#9E6A5E" stroke-width="2"/>
<mask id="mask0_219_780" style="mask-type:alpha" maskUnits="userSpaceOnUse" x="2" y="36" width="294" height="70">
<mask id="path-3-inside-1_219_780" fill="white">
<rect x="2" y="36" width="294" height="69.0139" rx="10"/>
</mask>
<rect x="2" y="36" width="294" height="69.0139" rx="10" fill="#CF5836" stroke="black" stroke-width="60" mask="url(#path-3-inside-1_219_780)"/>
</mask>
<g mask="url(#mask0_219_780)">
<path d="M-0.456787 116.365L42.9471 22.8329H65.468L22.0641 116.365H-0.456787Z" fill="#DBA69A"/>
<path d="M-38.9471 116.365L4.45676 22.8329H26.9777L-16.4263 116.365H-38.9471Z" fill="#DBA69A"/>
<path d="M38.8524 116.365L82.2563 22.8329H104.777L61.3733 116.365H38.8524Z" fill="#DBA69A"/>
<path d="M80.6184 116.365L124.022 22.8329H146.543L103.139 116.365H80.6184Z" fill="#DBA69A"/>
<path d="M122.384 116.365L165.788 22.8329H188.309L144.905 116.365H122.384Z" fill="#DBA69A"/>
<path d="M164.15 116.365L207.554 22.8329H230.075L186.671 116.365H164.15Z" fill="#DBA69A"/>
<path d="M205.098 116.365L248.501 22.8329H271.022L227.618 116.365H205.098Z" fill="#DBA69A"/>
<path d="M242.769 116.365L286.173 22.8329H308.694L265.29 116.365H242.769Z" fill="#DBA69A"/>
<path d="M277.983 116.365L321.387 22.8329H343.908L300.504 116.365H277.983Z" fill="#DBA69A"/>
</g>
<rect x="241" y="39" width="4" height="4" rx="2" fill="black"/>
<rect x="53" y="39" width="4" height="4" rx="2" fill="black"/>
<path d="M55 21.5V28.5" stroke="#333333" stroke-width="1.5" stroke-linecap="round"/>
<path d="M243 21.5V28.5" stroke="#333333" stroke-width="1.5" stroke-linecap="round"/>
<path d="M52 -335.119V-338.984C52 -340.647 53.2588 -342 54.8074 -342H55.1946C56.7412 -342 58 -340.647 58 -338.984V-335.119C58 -333.651 57.0169 -332.424 55.7216 -332.158V-330.87C57.0169 -330.605 58 -329.378 58 -327.909V-324.044C58 -322.576 57.0169 -321.349 55.7216 -321.083V-320.103C57.0169 -319.837 58 -318.61 58 -317.142V-313.276C58 -311.808 57.0169 -310.581 55.7216 -310.315V-309.028C57.0169 -308.762 58 -307.535 58 -306.066V-302.201C58 -300.733 57.0169 -299.506 55.7216 -299.24V-298.114C57.0169 -297.848 58 -296.621 58 -295.153V-291.287C58 -289.819 57.0169 -288.592 55.7216 -288.326V-287.039C57.0169 -286.773 58 -285.546 58 -284.078V-280.212C58 -278.744 57.0169 -277.517 55.7216 -277.251V-276.271C57.0169 -276.005 58 -274.778 58 -273.31V-269.444C58 -267.976 57.0169 -266.749 55.7216 -266.483V-265.196C57.0169 -264.93 58 -263.703 58 -262.235V-258.369C58 -256.901 57.0169 -255.674 55.7216 -255.408V-254.101C57.0169 -253.835 58 -252.608 58 -251.14V-247.275C58 -245.806 57.0169 -244.579 55.7216 -244.314V-243.026C57.0169 -242.76 58 -241.533 58 -240.065V-236.2C58 -234.731 57.0169 -233.504 55.7216 -233.238V-232.258C57.0169 -231.992 58 -230.765 58 -229.297V-225.432C58 -223.963 57.0169 -222.736 55.7216 -222.471V-221.183C57.0169 -220.917 58 -219.69 58 -218.222V-214.357C58 -212.888 57.0169 -211.661 55.7216 -211.396V-210.267C57.0169 -210.001 58 -208.774 58 -207.306V-203.441C58 -201.972 57.0169 -200.745 55.7216 -200.479V-199.192C57.0169 -198.926 58 -197.699 58 -196.231V-192.365C58 -190.897 57.0169 -189.67 55.7216 -189.404V-188.424C57.0169 -188.158 58 -186.931 58 -185.463V-181.598C58 -180.129 57.0169 -178.902 55.7216 -178.637V-177.349C57.0169 -177.083 58 -175.856 58 -174.388V-170.523C58 -169.054 57.0169 -167.827 55.7216 -167.561V-166.287C57.0169 -166.021 58 -164.794 58 -163.326V-159.461C58 -157.992 57.0169 -156.765 55.7216 -156.499V-155.212C57.0169 -154.946 58 -153.719 58 -152.251V-148.388C58 -146.919 57.0169 -145.692 55.7216 -145.427V-144.446C57.0169 -144.18 58 -142.954 58 -141.485V-137.62C58 -136.151 57.0169 -134.925 55.7216 -134.659V-133.371C57.0169 -133.105 58 -131.878 58 -130.41V-126.545C58 -125.076 57.0169 -123.849 55.7216 -123.584V-122.457C57.0169 -122.191 58 -120.965 58 -119.496V-115.631C58 -114.162 57.0169 -112.936 55.7216 -112.67V-111.382C57.0169 -111.116 58 -109.89 58 -108.421V-104.556C58 -103.087 57.0169 -101.861 55.7216 -101.595V-100.614C57.0169 -100.348 58 -99.1217 58 -97.6532V-93.79C58 -92.3215 57.0169 -91.0948 55.7216 -90.829V-89.5413C57.0169 -89.2755 58 -88.0488 58 -86.5802V-82.715C58 -81.2464 57.0169 -80.0197 55.7216 -79.7539V-78.4466C57.0169 -78.1808 58 -76.9541 58 -75.4856V-71.6203C58 -70.1517 57.0169 -68.925 55.7216 -68.6592V-67.3715C57.0169 -67.1057 58 -65.879 58 -64.4105V-60.5474C58 -59.0788 57.0169 -57.8521 55.7216 -57.5863V-56.6058C57.0169 -56.34 58 -55.1133 58 -53.6448V-49.7795C58 -48.311 57.0169 -47.0843 55.7216 -46.8185V-45.5307C57.0169 -45.2649 58 -44.0382 58 -42.5697V-38.7044C58 -37.2359 57.0169 -36.0092 55.7216 -35.7434V-34.6169C57.0169 -34.3511 58 -33.1244 58 -31.6559V-27.7928C58 -26.3242 57.0169 -25.0975 55.7216 -24.8317V-23.544C57.0169 -23.2782 58 -22.0515 58 -20.5829V-16.7177C58 -15.2491 57.0169 -14.0224 55.7216 -13.7566V-12.7761C57.0169 -12.5103 58 -11.2836 58 -9.8151V-5.95201C58 -4.48128 57.0169 -3.25675 55.7216 -2.99093V-1.70325C57.0169 -1.43743 58 -0.210723 58 1.25782V5.12309C58 6.59164 57.0169 7.81832 55.7216 8.08414V9.31956C57.0169 9.58538 58 10.8121 58 12.2806V16.1459C58 17.6144 57.0169 18.8411 55.7216 19.1069V20.3946C57.0169 20.6604 58 21.8871 58 23.3557V27.2188C58 28.6873 57.0169 29.914 55.7216 30.1798V31.1603C57.0169 31.4261 58 32.6528 58 34.1214V37.9845C58 39.6491 56.7412 41 55.1946 41H54.8074C53.2608 41 52.002 39.6469 52.002 37.9845V34.1214C52.002 32.6506 52.9851 31.4261 54.2804 31.1603V30.1798C52.9851 29.914 52.002 28.6873 52.002 27.2188V23.3557C52.002 21.8871 52.9851 20.6604 54.2804 20.3946V19.1069C52.9851 18.8411 52.002 17.6144 52.002 16.1459V12.2806C52.002 10.8121 52.9851 9.58538 54.2804 9.31956V8.08414C52.9851 7.81832 52.002 6.59164 52.002 5.12309V1.25782C52.002 -0.210723 52.9851 -1.43743 54.2804 -1.70325V-2.99093C52.9851 -3.25675 52.002 -4.48346 52.002 -5.95201V-9.8151C52.002 -11.2836 52.9851 -12.5103 54.2804 -12.7761V-13.7566C52.9851 -14.0224 52.002 -15.2491 52.002 -16.7177V-20.5829C52.002 -22.0515 52.9851 -23.2782 54.2804 -23.544V-24.8317C52.9851 -25.0975 52.002 -26.3242 52.002 -27.7928V-31.6559C52.002 -33.1244 52.9851 -34.3511 54.2804 -34.6169V-35.7434C52.9851 -36.0092 52.002 -37.2359 52.002 -38.7044V-42.5697C52.002 -44.0382 52.9851 -45.2649 54.2804 -45.5307V-46.8185C52.9851 -47.0843 52.002 -48.311 52.002 -49.7795V-53.6448C52.002 -55.1133 52.9851 -56.34 54.2804 -56.6058V-57.5863C52.9851 -57.8521 52.002 -59.0788 52.002 -60.5474V-64.4105C52.002 -65.879 52.9851 -67.1057 54.2804 -67.3715V-68.6592C52.9851 -68.925 52.002 -70.1517 52.002 -71.6203V-75.4856C52.002 -76.9541 52.9851 -78.1808 54.2804 -78.4466V-79.7539C52.9851 -80.0197 52.002 -81.2464 52.002 -82.715V-86.5802C52.002 -88.0488 52.9851 -89.2755 54.2804 -89.5413V-90.829C52.9851 -91.0948 52.002 -92.3215 52.002 -93.79V-97.6532C52.002 -99.1239 52.9851 -100.348 54.2804 -100.614V-101.595C52.9851 -101.861 52.002 -103.087 52.002 -104.556V-108.421C52.002 -109.89 52.9851 -111.116 54.2804 -111.382V-112.67C52.9851 -112.936 52.002 -114.162 52.002 -115.631V-119.496C52.002 -120.965 52.9851 -122.191 54.2804 -122.457V-123.584C52.9851 -123.849 52.002 -125.076 52.002 -126.545V-130.41C52.002 -131.878 52.9851 -133.105 54.2804 -133.371V-134.659C52.9851 -134.925 52.002 -136.151 52.002 -137.62V-141.485C52.002 -142.954 52.9851 -144.18 54.2804 -144.446V-145.427C52.9851 -145.692 52.002 -146.919 52.002 -148.388V-152.251C52.002 -153.719 52.9851 -154.946 54.2804 -155.212V-156.499C52.9851 -156.765 52.002 -157.992 52.002 -159.461V-163.326C52.002 -164.794 52.9851 -166.021 54.2804 -166.287V-167.561C52.9851 -167.827 52.002 -169.054 52.002 -170.523V-174.388C52.002 -175.856 52.9851 -177.083 54.2804 -177.349V-178.637C52.9851 -178.902 52.002 -180.129 52.002 -181.598V-185.463C52.002 -186.931 52.9851 -188.158 54.2804 -188.424V-189.404C52.9851 -189.67 52.002 -190.897 52.002 -192.365V-196.231C52.002 -197.699 52.9851 -198.926 54.2804 -199.192V-200.479C52.9851 -200.745 52.002 -201.972 52.002 -203.441V-207.306C52.002 -208.774 52.9851 -210.001 54.2804 -210.267V-211.396C52.9851 -211.661 52.002 -212.888 52.002 -214.357V-218.222C52.002 -219.69 52.9851 -220.917 54.2804 -221.183V-222.471C52.9851 -222.736 52.002 -223.963 52.002 -225.432V-229.297C52.002 -230.765 52.9851 -231.992 54.2804 -232.258V-233.238C52.9851 -233.504 52.002 -234.731 52.002 -236.2V-240.065C52.002 -241.533 52.9851 -242.76 54.2804 -243.026V-244.314C52.9851 -244.579 52.002 -245.806 52.002 -247.275V-251.14C52.002 -252.608 52.9851 -253.835 54.2804 -254.101V-255.408C52.9851 -255.674 52.002 -256.901 52.002 -258.369V-262.235C52.002 -263.703 52.9851 -264.93 54.2804 -265.196V-266.483C52.9851 -266.749 52.002 -267.976 52.002 -269.444V-273.31C52.002 -274.778 52.9851 -276.005 54.2804 -276.271V-277.251C52.9851 -277.517 52.002 -278.744 52.002 -280.212V-284.078C52.002 -285.546 52.9851 -286.773 54.2804 -287.039V-288.326C52.9851 -288.592 52.002 -289.819 52.002 -291.287V-295.153C52.002 -296.621 52.9851 -297.848 54.2804 -298.114V-299.24C52.9851 -299.506 52.002 -300.733 52.002 -302.201V-306.066C52.002 -307.535 52.9851 -308.762 54.2804 -309.028V-310.315C52.9851 -310.581 52.002 -311.808 52.002 -313.276V-317.142C52.002 -318.61 52.9851 -319.837 54.2804 -320.103V-321.083C52.9851 -321.349 52.002 -322.576 52.002 -324.044V-327.909C52.002 -329.378 52.9851 -330.605 54.2804 -330.87V-332.158C52.9851 -332.424 52.002 -333.651 52.002 -335.119H52ZM56.5568 -335.119V-338.984C56.5568 -339.793 55.9446 -340.451 55.1926 -340.451H54.8054C54.0534 -340.451 53.4412 -339.793 53.4412 -338.984V-335.119C53.4412 -334.511 53.7858 -333.991 54.2764 -333.768V-334.607C54.2764 -335.036 54.5986 -335.383 54.998 -335.383C55.3973 -335.383 55.7196 -335.036 55.7196 -334.607V-333.768C56.2101 -333.991 56.5547 -334.511 56.5547 -335.119H56.5568ZM53.4432 34.1061V37.9692C53.4432 38.7776 54.0554 39.4356 54.8074 39.4356H55.1946C55.9466 39.4356 56.5588 38.7776 56.5588 37.9692V34.1061C56.5588 33.4982 56.2142 32.9775 55.7236 32.7552V33.6006C55.7236 34.0299 55.4014 34.3763 55.002 34.3763C54.6027 34.3763 54.2804 34.0299 54.2804 33.6006V32.7552C53.7899 32.9775 53.4453 33.4982 53.4453 34.1061H53.4432ZM53.4432 23.3404V27.2035C53.4432 27.8114 53.7878 28.3322 54.2784 28.5544V27.7635C54.2784 27.3343 54.6007 26.9878 55 26.9878C55.3993 26.9878 55.7216 27.3343 55.7216 27.7635V28.5544C56.2122 28.3322 56.5568 27.8114 56.5568 27.2035V23.3404C56.5568 22.7325 56.2122 22.2118 55.7216 21.9896V22.4798C55.7216 22.9069 55.3993 23.2555 55 23.2555C54.6007 23.2555 54.2784 22.909 54.2784 22.4798V21.9896C53.7878 22.2118 53.4432 22.7325 53.4432 23.3404ZM53.4432 12.2654V16.1306C53.4432 16.7385 53.7878 17.2593 54.2784 17.4815V16.6427C54.2784 16.2156 54.6007 15.867 55 15.867C55.3993 15.867 55.7216 16.2134 55.7216 16.6427V17.4815C56.2122 17.2593 56.5568 16.7364 56.5568 16.1306V12.2654C56.5568 11.6575 56.2122 11.1367 55.7216 10.9145V11.7599C55.7216 12.1869 55.3993 12.5355 55 12.5355C54.6007 12.5355 54.2784 12.1891 54.2784 11.7599V10.9145C53.7878 11.1367 53.4432 11.6596 53.4432 12.2654ZM53.4432 1.24255V5.10783C53.4432 5.71573 53.7878 6.23649 54.2784 6.45873V5.92271C54.2784 5.49566 54.6007 5.14706 55 5.14706C55.3993 5.14706 55.7216 5.49348 55.7216 5.92271V6.45873C56.2122 6.23649 56.5568 5.71355 56.5568 5.10783V1.24255C56.5568 0.634655 56.2122 0.113921 55.7216 -0.108321V0.381919C55.7216 0.808973 55.3993 1.15758 55 1.15758C54.6007 1.15758 54.2784 0.811152 54.2784 0.381919V-0.108321C53.7878 0.113921 53.4432 0.634655 53.4432 1.24255ZM53.4432 -9.83034V-5.96725C53.4432 -5.35935 53.7878 -4.83861 54.2784 -4.61637V-5.45522C54.2784 -5.88228 54.6007 -6.23088 55 -6.23088C55.3993 -6.23088 55.7216 -5.88445 55.7216 -5.45522V-4.61637C56.2122 -4.83861 56.5568 -5.35935 56.5568 -5.96725V-9.83034C56.5568 -10.4382 56.2122 -10.959 55.7216 -11.1812V-10.3358C55.7216 -9.90661 55.3993 -9.56016 55 -9.56016C54.6007 -9.56016 54.2784 -9.90661 54.2784 -10.3358V-11.1812C53.7878 -10.959 53.4432 -10.4382 53.4432 -9.83034ZM53.4432 -20.5982V-16.7329C53.4432 -16.1272 53.7878 -15.6043 54.2784 -15.382V-16.173C54.2784 -16.6 54.6007 -16.9486 55 -16.9486C55.3993 -16.9486 55.7216 -16.6022 55.7216 -16.173V-15.382C56.2122 -15.6043 56.5568 -16.125 56.5568 -16.7329V-20.5982C56.5568 -21.2061 56.2122 -21.7268 55.7216 -21.9491V-21.4588C55.7216 -21.0296 55.3993 -20.6832 55 -20.6832C54.6007 -20.6832 54.2784 -21.0296 54.2784 -21.4588V-21.9491C53.7878 -21.7268 53.4432 -21.2061 53.4432 -20.5982ZM53.4432 -31.6711V-27.808C53.4432 -27.2001 53.7878 -26.6794 54.2784 -26.4571V-27.296C54.2784 -27.723 54.6007 -28.0716 55 -28.0716C55.3993 -28.0716 55.7216 -27.723 55.7216 -27.296V-26.4571C56.2122 -26.6794 56.5568 -27.2001 56.5568 -27.808V-31.6711C56.5568 -32.279 56.2122 -32.7998 55.7216 -33.022V-32.1766C55.7216 -31.7496 55.3993 -31.4009 55 -31.4009C54.6007 -31.4009 54.2784 -31.7474 54.2784 -32.1766V-33.022C53.7878 -32.7998 53.4432 -32.279 53.4432 -31.6711ZM53.4432 -42.585V-38.7197C53.4432 -38.1118 53.7878 -37.591 54.2784 -37.3688V-38.0115C54.2784 -38.4386 54.6007 -38.7872 55 -38.7872C55.3993 -38.7872 55.7216 -38.4408 55.7216 -38.0115V-37.3688C56.2122 -37.591 56.5568 -38.1118 56.5568 -38.7197V-42.585C56.5568 -43.1929 56.2122 -43.7136 55.7216 -43.9358V-43.4456C55.7216 -43.0185 55.3993 -42.6699 55 -42.6699C54.6007 -42.6699 54.2784 -43.0164 54.2784 -43.4456V-43.9358C53.7878 -43.7136 53.4432 -43.1907 53.4432 -42.585ZM53.4432 -53.66V-49.7948C53.4432 -49.189 53.7878 -48.6661 54.2784 -48.4439V-49.2827C54.2784 -49.7098 54.6007 -50.0584 55 -50.0584C55.3993 -50.0584 55.7216 -49.712 55.7216 -49.2827V-48.4439C56.2122 -48.6661 56.5568 -49.1869 56.5568 -49.7948V-53.66C56.5568 -54.2658 56.2122 -54.7887 55.7216 -55.0109V-54.1655C55.7216 -53.7385 55.3993 -53.3899 55 -53.3899C54.6007 -53.3899 54.2784 -53.7363 54.2784 -54.1655V-55.0109C53.7878 -54.7887 53.4432 -54.2679 53.4432 -53.66ZM53.4432 -64.4257V-60.5626C53.4432 -59.9547 53.7878 -59.434 54.2784 -59.2117V-60.0027C54.2784 -60.4297 54.6007 -60.7783 55 -60.7783C55.3993 -60.7783 55.7216 -60.4319 55.7216 -60.0027V-59.2117C56.2122 -59.434 56.5568 -59.9547 56.5568 -60.5626V-64.4257C56.5568 -65.0336 56.2122 -65.5544 55.7216 -65.7766V-65.2864C55.7216 -64.8593 55.3993 -64.5107 55 -64.5107C54.6007 -64.5107 54.2784 -64.8571 54.2784 -65.2864V-65.7766C53.7878 -65.5544 53.4432 -65.0336 53.4432 -64.4257ZM53.4432 -75.5008V-71.6355C53.4432 -71.0276 53.7878 -70.5069 54.2784 -70.2846V-71.1235C54.2784 -71.5506 54.6007 -71.8992 55 -71.8992C55.3993 -71.8992 55.7216 -71.5527 55.7216 -71.1235V-70.2846C56.2122 -70.5069 56.5568 -71.0276 56.5568 -71.6355V-75.5008C56.5568 -76.1065 56.2122 -76.6294 55.7216 -76.8517V-76.0063C55.7216 -75.5792 55.3993 -75.2306 55 -75.2306C54.6007 -75.2306 54.2784 -75.5771 54.2784 -76.0063V-76.8517C53.7878 -76.6294 53.4432 -76.1087 53.4432 -75.5008ZM53.4432 -86.5955V-82.7302C53.4432 -82.1223 53.7878 -81.6016 54.2784 -81.3793V-81.8434C54.2784 -82.2727 54.6007 -82.6191 55 -82.6191C55.3993 -82.6191 55.7216 -82.2727 55.7216 -81.8434V-81.3793C56.2122 -81.6016 56.5568 -82.1223 56.5568 -82.7302V-86.5955C56.5568 -87.2034 56.2122 -87.7241 55.7216 -87.9464V-87.4561C55.7216 -87.0291 55.3993 -86.6805 55 -86.6805C54.6007 -86.6805 54.2784 -87.0269 54.2784 -87.4561V-87.9464C53.7878 -87.7241 53.4432 -87.2034 53.4432 -86.5955ZM53.4432 -97.6684V-93.8053C53.4432 -93.1974 53.7878 -92.6766 54.2784 -92.4544V-93.2933C54.2784 -93.7203 54.6007 -94.0689 55 -94.0689C55.3993 -94.0689 55.7216 -93.7225 55.7216 -93.2933V-92.4544C56.2122 -92.6766 56.5568 -93.1974 56.5568 -93.8053V-97.6684C56.5568 -98.2763 56.2122 -98.797 55.7216 -99.0193V-98.1739C55.7216 -97.7468 55.3993 -97.3982 55 -97.3982C54.6007 -97.3982 54.2784 -97.7446 54.2784 -98.1739V-99.0193C53.7878 -98.797 53.4432 -98.2763 53.4432 -97.6684ZM53.4432 -108.436V-104.571C53.4432 -103.965 53.7878 -103.442 54.2784 -103.22V-104.011C54.2784 -104.438 54.6007 -104.787 55 -104.787C55.3993 -104.787 55.7216 -104.44 55.7216 -104.011V-103.22C56.2122 -103.442 56.5568 -103.963 56.5568 -104.571V-108.436C56.5568 -109.042 56.2122 -109.565 55.7216 -109.787V-109.297C55.7216 -108.87 55.3993 -108.521 55 -108.521C54.6007 -108.521 54.2784 -108.868 54.2784 -109.297V-109.787C53.7878 -109.565 53.4432 -109.044 53.4432 -108.436ZM53.4432 -119.509V-115.644C53.4432 -115.036 53.7878 -114.515 54.2784 -114.293V-115.132C54.2784 -115.559 54.6007 -115.908 55 -115.908C55.3993 -115.908 55.7216 -115.561 55.7216 -115.132V-114.293C56.2122 -114.515 56.5568 -115.036 56.5568 -115.644V-119.509C56.5568 -120.117 56.2122 -120.638 55.7216 -120.86V-120.015C55.7216 -119.585 55.3993 -119.239 55 -119.239C54.6007 -119.239 54.2784 -119.585 54.2784 -120.015V-120.86C53.7878 -120.638 53.4432 -120.115 53.4432 -119.509ZM53.4432 -130.423V-126.558C53.4432 -125.95 53.7878 -125.429 54.2784 -125.207V-125.85C54.2784 -126.277 54.6007 -126.625 55 -126.625C55.3993 -126.625 55.7216 -126.279 55.7216 -125.85V-125.207C56.2122 -125.429 56.5568 -125.952 56.5568 -126.558V-130.423C56.5568 -131.031 56.2122 -131.552 55.7216 -131.774V-131.284C55.7216 -130.857 55.3993 -130.508 55 -130.508C54.6007 -130.508 54.2784 -130.854 54.2784 -131.284V-131.774C53.7878 -131.552 53.4432 -131.031 53.4432 -130.423ZM53.4432 -141.498V-137.633C53.4432 -137.027 53.7878 -136.504 54.2784 -136.282V-137.121C54.2784 -137.55 54.6007 -137.896 55 -137.896C55.3993 -137.896 55.7216 -137.55 55.7216 -137.121V-136.282C56.2122 -136.504 56.5568 -137.025 56.5568 -137.633V-141.498C56.5568 -142.104 56.2122 -142.627 55.7216 -142.849V-142.004C55.7216 -141.577 55.3993 -141.228 55 -141.228C54.6007 -141.228 54.2784 -141.574 54.2784 -142.004V-142.849C53.7878 -142.627 53.4432 -142.106 53.4432 -141.498ZM53.4432 -152.264V-148.401C53.4432 -147.793 53.7878 -147.272 54.2784 -147.05V-147.841C54.2784 -148.268 54.6007 -148.616 55 -148.616C55.3993 -148.616 55.7216 -148.27 55.7216 -147.841V-147.05C56.2122 -147.272 56.5568 -147.793 56.5568 -148.401V-152.264C56.5568 -152.872 56.2122 -153.392 55.7216 -153.615V-153.124C55.7216 -152.697 55.3993 -152.349 55 -152.349C54.6007 -152.349 54.2784 -152.695 54.2784 -153.124V-153.615C53.7878 -153.392 53.4432 -152.872 53.4432 -152.264ZM53.4432 -163.339V-159.474C53.4432 -158.868 53.7878 -158.345 54.2784 -158.123V-158.962C54.2784 -159.389 54.6007 -159.737 55 -159.737C55.3993 -159.737 55.7216 -159.391 55.7216 -158.962V-158.123C56.2122 -158.345 56.5568 -158.866 56.5568 -159.474V-163.339C56.5568 -163.945 56.2122 -164.467 55.7216 -164.69V-163.844C55.7216 -163.417 55.3993 -163.069 55 -163.069C54.6007 -163.069 54.2784 -163.415 54.2784 -163.844V-164.69C53.7878 -164.467 53.4432 -163.947 53.4432 -163.339ZM53.4432 -174.401V-170.536C53.4432 -169.93 53.7878 -169.407 54.2784 -169.185V-169.679C54.2784 -170.106 54.6007 -170.455 55 -170.455C55.3993 -170.455 55.7216 -170.109 55.7216 -169.679V-169.185C56.2122 -169.407 56.5568 -169.928 56.5568 -170.536V-174.401C56.5568 -175.007 56.2122 -175.53 55.7216 -175.752V-175.262C55.7216 -174.832 55.3993 -174.486 55 -174.486C54.6007 -174.486 54.2784 -174.832 54.2784 -175.262V-175.752C53.7878 -175.53 53.4432 -175.009 53.4432 -174.401ZM53.4432 -185.476V-181.611C53.4432 -181.005 53.7878 -180.482 54.2784 -180.26V-181.099C54.2784 -181.526 54.6007 -181.874 55 -181.874C55.3993 -181.874 55.7216 -181.528 55.7216 -181.099V-180.26C56.2122 -180.482 56.5568 -181.003 56.5568 -181.611V-185.476C56.5568 -186.084 56.2122 -186.605 55.7216 -186.827V-185.981C55.7216 -185.552 55.3993 -185.206 55 -185.206C54.6007 -185.206 54.2784 -185.552 54.2784 -185.981V-186.827C53.7878 -186.605 53.4432 -186.084 53.4432 -185.476ZM53.4432 -196.244V-192.379C53.4432 -191.771 53.7878 -191.25 54.2784 -191.028V-191.819C54.2784 -192.248 54.6007 -192.594 55 -192.594C55.3993 -192.594 55.7216 -192.248 55.7216 -191.819V-191.028C56.2122 -191.25 56.5568 -191.771 56.5568 -192.379V-196.244C56.5568 -196.852 56.2122 -197.372 55.7216 -197.595V-197.104C55.7216 -196.675 55.3993 -196.329 55 -196.329C54.6007 -196.329 54.2784 -196.675 54.2784 -197.104V-197.595C53.7878 -197.372 53.4432 -196.852 53.4432 -196.244ZM53.4432 -207.317V-203.451C53.4432 -202.844 53.7878 -202.323 54.2784 -202.101V-202.939C54.2784 -203.369 54.6007 -203.715 55 -203.715C55.3993 -203.715 55.7216 -203.369 55.7216 -202.939V-202.101C56.2122 -202.323 56.5568 -202.844 56.5568 -203.451V-207.317C56.5568 -207.925 56.2122 -208.445 55.7216 -208.668V-207.822C55.7216 -207.393 55.3993 -207.047 55 -207.047C54.6007 -207.047 54.2784 -207.393 54.2784 -207.822V-208.668C53.7878 -208.445 53.4432 -207.925 53.4432 -207.317ZM53.4432 -218.231V-214.365C53.4432 -213.757 53.7878 -213.237 54.2784 -213.014V-213.657C54.2784 -214.086 54.6007 -214.433 55 -214.433C55.3993 -214.433 55.7216 -214.086 55.7216 -213.657V-213.014C56.2122 -213.237 56.5568 -213.757 56.5568 -214.365V-218.231C56.5568 -218.838 56.2122 -219.359 55.7216 -219.581V-219.091C55.7216 -218.662 55.3993 -218.316 55 -218.316C54.6007 -218.316 54.2784 -218.662 54.2784 -219.091V-219.581C53.7878 -219.359 53.4432 -218.838 53.4432 -218.231ZM53.4432 -229.306V-225.44C53.4432 -224.832 53.7878 -224.312 54.2784 -224.089V-224.928C54.2784 -225.358 54.6007 -225.704 55 -225.704C55.3993 -225.704 55.7216 -225.358 55.7216 -224.928V-224.089C56.2122 -224.312 56.5568 -224.832 56.5568 -225.44V-229.306C56.5568 -229.914 56.2122 -230.434 55.7216 -230.657V-229.811C55.7216 -229.382 55.3993 -229.035 55 -229.035C54.6007 -229.035 54.2784 -229.382 54.2784 -229.811V-230.657C53.7878 -230.434 53.4432 -229.914 53.4432 -229.306ZM53.4432 -240.074V-236.208C53.4432 -235.6 53.7878 -235.08 54.2784 -234.857V-235.648C54.2784 -236.078 54.6007 -236.424 55 -236.424C55.3993 -236.424 55.7216 -236.078 55.7216 -235.648V-234.857C56.2122 -235.08 56.5568 -235.6 56.5568 -236.208V-240.074C56.5568 -240.681 56.2122 -241.202 55.7216 -241.424V-240.934C55.7216 -240.505 55.3993 -240.158 55 -240.158C54.6007 -240.158 54.2784 -240.505 54.2784 -240.934V-241.424C53.7878 -241.202 53.4432 -240.681 53.4432 -240.074ZM53.4432 -251.146V-247.281C53.4432 -246.673 53.7878 -246.152 54.2784 -245.93V-246.769C54.2784 -247.198 54.6007 -247.545 55 -247.545C55.3993 -247.545 55.7216 -247.198 55.7216 -246.769V-245.93C56.2122 -246.152 56.5568 -246.673 56.5568 -247.281V-251.146C56.5568 -251.754 56.2122 -252.275 55.7216 -252.497V-251.652C55.7216 -251.223 55.3993 -250.876 55 -250.876C54.6007 -250.876 54.2784 -251.223 54.2784 -251.652V-252.497C53.7878 -252.275 53.4432 -251.754 53.4432 -251.146ZM53.4432 -262.241V-258.376C53.4432 -257.768 53.7878 -257.247 54.2784 -257.025V-257.487C54.2784 -257.916 54.6007 -258.263 55 -258.263C55.3993 -258.263 55.7216 -257.916 55.7216 -257.487V-257.025C56.2122 -257.247 56.5568 -257.768 56.5568 -258.376V-262.241C56.5568 -262.849 56.2122 -263.37 55.7216 -263.592V-263.102C55.7216 -262.673 55.3993 -262.326 55 -262.326C54.6007 -262.326 54.2784 -262.673 54.2784 -263.102V-263.592C53.7878 -263.37 53.4432 -262.849 53.4432 -262.241ZM53.4432 -273.316V-269.451C53.4432 -268.843 53.7878 -268.322 54.2784 -268.1V-268.939C54.2784 -269.368 54.6007 -269.715 55 -269.715C55.3993 -269.715 55.7216 -269.368 55.7216 -268.939V-268.1C56.2122 -268.322 56.5568 -268.843 56.5568 -269.451V-273.316C56.5568 -273.924 56.2122 -274.445 55.7216 -274.667V-273.822C55.7216 -273.392 55.3993 -273.046 55 -273.046C54.6007 -273.046 54.2784 -273.392 54.2784 -273.822V-274.667C53.7878 -274.445 53.4432 -273.924 53.4432 -273.316ZM53.4432 -284.082V-280.217C53.4432 -279.609 53.7878 -279.088 54.2784 -278.866V-279.657C54.2784 -280.086 54.6007 -280.432 55 -280.432C55.3993 -280.432 55.7216 -280.086 55.7216 -279.657V-278.866C56.2122 -279.088 56.5568 -279.609 56.5568 -280.217V-284.082C56.5568 -284.69 56.2122 -285.211 55.7216 -285.433V-284.943C55.7216 -284.513 55.3993 -284.167 55 -284.167C54.6007 -284.167 54.2784 -284.513 54.2784 -284.943V-285.433C53.7878 -285.211 53.4432 -284.69 53.4432 -284.082ZM53.4432 -295.157V-291.292C53.4432 -290.684 53.7878 -290.163 54.2784 -289.941V-290.78C54.2784 -291.209 54.6007 -291.555 55 -291.555C55.3993 -291.555 55.7216 -291.209 55.7216 -290.78V-289.941C56.2122 -290.163 56.5568 -290.684 56.5568 -291.292V-295.157C56.5568 -295.765 56.2122 -296.286 55.7216 -296.508V-295.662C55.7216 -295.233 55.3993 -294.887 55 -294.887C54.6007 -294.887 54.2784 -295.233 54.2784 -295.662V-296.508C53.7878 -296.286 53.4432 -295.765 53.4432 -295.157ZM53.4432 -306.071V-302.206C53.4432 -301.598 53.7878 -301.077 54.2784 -300.855V-301.497C54.2784 -301.927 54.6007 -302.273 55 -302.273C55.3993 -302.273 55.7216 -301.927 55.7216 -301.497V-300.855C56.2122 -301.077 56.5568 -301.598 56.5568 -302.206V-306.071C56.5568 -306.679 56.2122 -307.199 55.7216 -307.422V-306.931C55.7216 -306.502 55.3993 -306.156 55 -306.156C54.6007 -306.156 54.2784 -306.502 54.2784 -306.931V-307.422C53.7878 -307.199 53.4432 -306.679 53.4432 -306.071ZM53.4432 -317.146V-313.281C53.4432 -312.673 53.7878 -312.152 54.2784 -311.93V-312.769C54.2784 -313.198 54.6007 -313.544 55 -313.544C55.3993 -313.544 55.7216 -313.198 55.7216 -312.769V-311.93C56.2122 -312.152 56.5568 -312.673 56.5568 -313.281V-317.146C56.5568 -317.754 56.2122 -318.275 55.7216 -318.497V-317.651C55.7216 -317.222 55.3993 -316.876 55 -316.876C54.6007 -316.876 54.2784 -317.222 54.2784 -317.651V-318.497C53.7878 -318.275 53.4432 -317.754 53.4432 -317.146ZM53.4432 -327.914V-324.048C53.4432 -323.441 53.7878 -322.92 54.2784 -322.698V-323.489C54.2784 -323.918 54.6007 -324.264 55 -324.264C55.3993 -324.264 55.7216 -323.918 55.7216 -323.489V-322.698C56.2122 -322.92 56.5568 -323.441 56.5568 -324.048V-327.914C56.5568 -328.522 56.2122 -329.042 55.7216 -329.265V-328.774C55.7216 -328.345 55.3993 -327.999 55 -327.999C54.6007 -327.999 54.2784 -328.345 54.2784 -328.774V-329.265C53.7878 -329.042 53.4432 -328.522 53.4432 -327.914Z" fill="#7B7B7B"/>
<path d="M240 -334.119V-337.984C240 -339.647 241.259 -341 242.807 -341H243.195C244.741 -341 246 -339.647 246 -337.984V-334.119C246 -332.651 245.017 -331.424 243.722 -331.158V-329.87C245.017 -329.605 246 -328.378 246 -326.909V-323.044C246 -321.576 245.017 -320.349 243.722 -320.083V-319.103C245.017 -318.837 246 -317.61 246 -316.142V-312.276C246 -310.808 245.017 -309.581 243.722 -309.315V-308.028C245.017 -307.762 246 -306.535 246 -305.066V-301.201C246 -299.733 245.017 -298.506 243.722 -298.24V-297.114C245.017 -296.848 246 -295.621 246 -294.153V-290.287C246 -288.819 245.017 -287.592 243.722 -287.326V-286.039C245.017 -285.773 246 -284.546 246 -283.078V-279.212C246 -277.744 245.017 -276.517 243.722 -276.251V-275.271C245.017 -275.005 246 -273.778 246 -272.31V-268.444C246 -266.976 245.017 -265.749 243.722 -265.483V-264.196C245.017 -263.93 246 -262.703 246 -261.235V-257.369C246 -255.901 245.017 -254.674 243.722 -254.408V-253.101C245.017 -252.835 246 -251.608 246 -250.14V-246.275C246 -244.806 245.017 -243.579 243.722 -243.314V-242.026C245.017 -241.76 246 -240.533 246 -239.065V-235.2C246 -233.731 245.017 -232.504 243.722 -232.238V-231.258C245.017 -230.992 246 -229.765 246 -228.297V-224.432C246 -222.963 245.017 -221.736 243.722 -221.471V-220.183C245.017 -219.917 246 -218.69 246 -217.222V-213.357C246 -211.888 245.017 -210.661 243.722 -210.396V-209.267C245.017 -209.001 246 -207.774 246 -206.306V-202.441C246 -200.972 245.017 -199.745 243.722 -199.479V-198.192C245.017 -197.926 246 -196.699 246 -195.231V-191.365C246 -189.897 245.017 -188.67 243.722 -188.404V-187.424C245.017 -187.158 246 -185.931 246 -184.463V-180.598C246 -179.129 245.017 -177.902 243.722 -177.637V-176.349C245.017 -176.083 246 -174.856 246 -173.388V-169.523C246 -168.054 245.017 -166.827 243.722 -166.561V-165.287C245.017 -165.021 246 -163.794 246 -162.326V-158.461C246 -156.992 245.017 -155.765 243.722 -155.499V-154.212C245.017 -153.946 246 -152.719 246 -151.251V-147.388C246 -145.919 245.017 -144.692 243.722 -144.427V-143.446C245.017 -143.18 246 -141.954 246 -140.485V-136.62C246 -135.151 245.017 -133.925 243.722 -133.659V-132.371C245.017 -132.105 246 -130.878 246 -129.41V-125.545C246 -124.076 245.017 -122.849 243.722 -122.584V-121.457C245.017 -121.191 246 -119.965 246 -118.496V-114.631C246 -113.162 245.017 -111.936 243.722 -111.67V-110.382C245.017 -110.116 246 -108.89 246 -107.421V-103.556C246 -102.087 245.017 -100.861 243.722 -100.595V-99.6142C245.017 -99.3484 246 -98.1217 246 -96.6532V-92.79C246 -91.3215 245.017 -90.0948 243.722 -89.829V-88.5413C245.017 -88.2755 246 -87.0488 246 -85.5802V-81.715C246 -80.2464 245.017 -79.0197 243.722 -78.7539V-77.4466C245.017 -77.1808 246 -75.9541 246 -74.4856V-70.6203C246 -69.1517 245.017 -67.925 243.722 -67.6592V-66.3715C245.017 -66.1057 246 -64.879 246 -63.4105V-59.5474C246 -58.0788 245.017 -56.8522 243.722 -56.5863V-55.6058C245.017 -55.34 246 -54.1133 246 -52.6448V-48.7795C246 -47.311 245.017 -46.0843 243.722 -45.8185V-44.5308C245.017 -44.2649 246 -43.0382 246 -41.5697V-37.7044C246 -36.2359 245.017 -35.0092 243.722 -34.7434V-33.6169C245.017 -33.3511 246 -32.1244 246 -30.6559V-26.7928C246 -25.3242 245.017 -24.0975 243.722 -23.8317V-22.544C245.017 -22.2782 246 -21.0515 246 -19.5829V-15.7177C246 -14.2491 245.017 -13.0224 243.722 -12.7566V-11.7762C245.017 -11.5103 246 -10.2836 246 -8.81509V-4.952C246 -3.48127 245.017 -2.25676 243.722 -1.99094V-0.703247C245.017 -0.437428 246 0.789269 246 2.25781V6.12311C246 7.59165 245.017 8.81832 243.722 9.08414V10.3195C245.017 10.5854 246 11.8121 246 13.2806V17.1459C246 18.6144 245.017 19.8411 243.722 20.1069V21.3946C245.017 21.6604 246 22.8871 246 24.3557V28.2188C246 29.6873 245.017 30.914 243.722 31.1798V32.1603C245.017 32.4261 246 33.6528 246 35.1214V38.9845C246 40.6491 244.741 42 243.195 42H242.807C241.261 42 240.002 40.6469 240.002 38.9845V35.1214C240.002 33.6506 240.985 32.4261 242.28 32.1603V31.1798C240.985 30.914 240.002 29.6873 240.002 28.2188V24.3557C240.002 22.8871 240.985 21.6604 242.28 21.3946V20.1069C240.985 19.8411 240.002 18.6144 240.002 17.1459V13.2806C240.002 11.8121 240.985 10.5854 242.28 10.3195V9.08414C240.985 8.81832 240.002 7.59165 240.002 6.12311V2.25781C240.002 0.789269 240.985 -0.437428 242.28 -0.703247V-1.99094C240.985 -2.25676 240.002 -3.48345 240.002 -4.952V-8.81509C240.002 -10.2836 240.985 -11.5103 242.28 -11.7762V-12.7566C240.985 -13.0224 240.002 -14.2491 240.002 -15.7177V-19.5829C240.002 -21.0515 240.985 -22.2782 242.28 -22.544V-23.8317C240.985 -24.0975 240.002 -25.3242 240.002 -26.7928V-30.6559C240.002 -32.1244 240.985 -33.3511 242.28 -33.6169V-34.7434C240.985 -35.0092 240.002 -36.2359 240.002 -37.7044V-41.5697C240.002 -43.0382 240.985 -44.2649 242.28 -44.5308V-45.8185C240.985 -46.0843 240.002 -47.311 240.002 -48.7795V-52.6448C240.002 -54.1133 240.985 -55.34 242.28 -55.6058V-56.5863C240.985 -56.8522 240.002 -58.0788 240.002 -59.5474V-63.4105C240.002 -64.879 240.985 -66.1057 242.28 -66.3715V-67.6592C240.985 -67.925 240.002 -69.1517 240.002 -70.6203V-74.4856C240.002 -75.9541 240.985 -77.1808 242.28 -77.4466V-78.7539C240.985 -79.0197 240.002 -80.2464 240.002 -81.715V-85.5802C240.002 -87.0488 240.985 -88.2755 242.28 -88.5413V-89.829C240.985 -90.0948 240.002 -91.3215 240.002 -92.79V-96.6532C240.002 -98.1239 240.985 -99.3484 242.28 -99.6142V-100.595C240.985 -100.861 240.002 -102.087 240.002 -103.556V-107.421C240.002 -108.89 240.985 -110.116 242.28 -110.382V-111.67C240.985 -111.936 240.002 -113.162 240.002 -114.631V-118.496C240.002 -119.965 240.985 -121.191 242.28 -121.457V-122.584C240.985 -122.849 240.002 -124.076 240.002 -125.545V-129.41C240.002 -130.878 240.985 -132.105 242.28 -132.371V-133.659C240.985 -133.925 240.002 -135.151 240.002 -136.62V-140.485C240.002 -141.954 240.985 -143.18 242.28 -143.446V-144.427C240.985 -144.692 240.002 -145.919 240.002 -147.388V-151.251C240.002 -152.719 240.985 -153.946 242.28 -154.212V-155.499C240.985 -155.765 240.002 -156.992 240.002 -158.461V-162.326C240.002 -163.794 240.985 -165.021 242.28 -165.287V-166.561C240.985 -166.827 240.002 -168.054 240.002 -169.523V-173.388C240.002 -174.856 240.985 -176.083 242.28 -176.349V-177.637C240.985 -177.902 240.002 -179.129 240.002 -180.598V-184.463C240.002 -185.931 240.985 -187.158 242.28 -187.424V-188.404C240.985 -188.67 240.002 -189.897 240.002 -191.365V-195.231C240.002 -196.699 240.985 -197.926 242.28 -198.192V-199.479C240.985 -199.745 240.002 -200.972 240.002 -202.441V-206.306C240.002 -207.774 240.985 -209.001 242.28 -209.267V-210.396C240.985 -210.661 240.002 -211.888 240.002 -213.357V-217.222C240.002 -218.69 240.985 -219.917 242.28 -220.183V-221.471C240.985 -221.736 240.002 -222.963 240.002 -224.432V-228.297C240.002 -229.765 240.985 -230.992 242.28 -231.258V-232.238C240.985 -232.504 240.002 -233.731 240.002 -235.2V-239.065C240.002 -240.533 240.985 -241.76 242.28 -242.026V-243.314C240.985 -243.579 240.002 -244.806 240.002 -246.275V-250.14C240.002 -251.608 240.985 -252.835 242.28 -253.101V-254.408C240.985 -254.674 240.002 -255.901 240.002 -257.369V-261.235C240.002 -262.703 240.985 -263.93 242.28 -264.196V-265.483C240.985 -265.749 240.002 -266.976 240.002 -268.444V-272.31C240.002 -273.778 240.985 -275.005 242.28 -275.271V-276.251C240.985 -276.517 240.002 -277.744 240.002 -279.212V-283.078C240.002 -284.546 240.985 -285.773 242.28 -286.039V-287.326C240.985 -287.592 240.002 -288.819 240.002 -290.287V-294.153C240.002 -295.621 240.985 -296.848 242.28 -297.114V-298.24C240.985 -298.506 240.002 -299.733 240.002 -301.201V-305.066C240.002 -306.535 240.985 -307.762 242.28 -308.028V-309.315C240.985 -309.581 240.002 -310.808 240.002 -312.276V-316.142C240.002 -317.61 240.985 -318.837 242.28 -319.103V-320.083C240.985 -320.349 240.002 -321.576 240.002 -323.044V-326.909C240.002 -328.378 240.985 -329.605 242.28 -329.87V-331.158C240.985 -331.424 240.002 -332.651 240.002 -334.119H240ZM244.557 -334.119V-337.984C244.557 -338.793 243.945 -339.451 243.193 -339.451H242.805C242.053 -339.451 241.441 -338.793 241.441 -337.984V-334.119C241.441 -333.511 241.786 -332.991 242.276 -332.768V-333.607C242.276 -334.036 242.599 -334.383 242.998 -334.383C243.397 -334.383 243.72 -334.036 243.72 -333.607V-332.768C244.21 -332.991 244.555 -333.511 244.555 -334.119H244.557ZM241.443 35.1061V38.9692C241.443 39.7776 242.055 40.4356 242.807 40.4356H243.195C243.947 40.4356 244.559 39.7776 244.559 38.9692V35.1061C244.559 34.4982 244.214 33.9775 243.724 33.7552V34.6006C243.724 35.0298 243.401 35.3763 243.002 35.3763C242.603 35.3763 242.28 35.0298 242.28 34.6006V33.7552C241.79 33.9775 241.445 34.4982 241.445 35.1061H241.443ZM241.443 24.3404V28.2035C241.443 28.8114 241.788 29.3322 242.278 29.5544V28.7635C242.278 28.3343 242.601 27.9878 243 27.9878C243.399 27.9878 243.722 28.3343 243.722 28.7635V29.5544C244.212 29.3322 244.557 28.8114 244.557 28.2035V24.3404C244.557 23.7325 244.212 23.2118 243.722 22.9896V23.4798C243.722 23.9069 243.399 24.2555 243 24.2555C242.601 24.2555 242.278 23.909 242.278 23.4798V22.9896C241.788 23.2118 241.443 23.7325 241.443 24.3404ZM241.443 13.2654V17.1306C241.443 17.7385 241.788 18.2593 242.278 18.4815V17.6427C242.278 17.2156 242.601 16.867 243 16.867C243.399 16.867 243.722 17.2134 243.722 17.6427V18.4815C244.212 18.2593 244.557 17.7364 244.557 17.1306V13.2654C244.557 12.6575 244.212 12.1367 243.722 11.9145V12.7599C243.722 13.1869 243.399 13.5355 243 13.5355C242.601 13.5355 242.278 13.1891 242.278 12.7599V11.9145C241.788 12.1367 241.443 12.6596 241.443 13.2654ZM241.443 2.24255V6.10782C241.443 6.71572 241.788 7.2365 242.278 7.45874V6.9227C242.278 6.49564 242.601 6.14706 243 6.14706C243.399 6.14706 243.722 6.49347 243.722 6.9227V7.45874C244.212 7.2365 244.557 6.71354 244.557 6.10782V2.24255C244.557 1.63466 244.212 1.11394 243.722 0.891693V1.38193C243.722 1.80898 243.399 2.15756 243 2.15756C242.601 2.15756 242.278 1.81116 242.278 1.38193V0.891693C241.788 1.11394 241.443 1.63466 241.443 2.24255ZM241.443 -8.83035V-4.96725C241.443 -4.35936 241.788 -3.83861 242.278 -3.61636V-4.45523C242.278 -4.88228 242.601 -5.23087 243 -5.23087C243.399 -5.23087 243.722 -4.88446 243.722 -4.45523V-3.61636C244.212 -3.83861 244.557 -4.35936 244.557 -4.96725V-8.83035C244.557 -9.43825 244.212 -9.959 243.722 -10.1812V-9.33585C243.722 -8.90661 243.399 -8.56015 243 -8.56015C242.601 -8.56015 242.278 -8.90661 242.278 -9.33585V-10.1812C241.788 -9.959 241.443 -9.43825 241.443 -8.83035ZM241.443 -19.5982V-15.7329C241.443 -15.1272 241.788 -14.6043 242.278 -14.382V-15.173C242.278 -15.6 242.601 -15.9486 243 -15.9486C243.399 -15.9486 243.722 -15.6022 243.722 -15.173V-14.382C244.212 -14.6043 244.557 -15.125 244.557 -15.7329V-19.5982C244.557 -20.2061 244.212 -20.7269 243.722 -20.9491V-20.4588C243.722 -20.0296 243.399 -19.6832 243 -19.6832C242.601 -19.6832 242.278 -20.0296 242.278 -20.4588V-20.9491C241.788 -20.7269 241.443 -20.2061 241.443 -19.5982ZM241.443 -30.6711V-26.808C241.443 -26.2001 241.788 -25.6794 242.278 -25.4571V-26.296C242.278 -26.723 242.601 -27.0717 243 -27.0717C243.399 -27.0717 243.722 -26.723 243.722 -26.296V-25.4571C244.212 -25.6794 244.557 -26.2001 244.557 -26.808V-30.6711C244.557 -31.279 244.212 -31.7998 243.722 -32.022V-31.1766C243.722 -30.7496 243.399 -30.4009 243 -30.4009C242.601 -30.4009 242.278 -30.7474 242.278 -31.1766V-32.022C241.788 -31.7998 241.443 -31.279 241.443 -30.6711ZM241.443 -41.585V-37.7197C241.443 -37.1118 241.788 -36.591 242.278 -36.3688V-37.0115C242.278 -37.4386 242.601 -37.7872 243 -37.7872C243.399 -37.7872 243.722 -37.4408 243.722 -37.0115V-36.3688C244.212 -36.591 244.557 -37.1118 244.557 -37.7197V-41.585C244.557 -42.1929 244.212 -42.7136 243.722 -42.9359V-42.4456C243.722 -42.0186 243.399 -41.6699 243 -41.6699C242.601 -41.6699 242.278 -42.0164 242.278 -42.4456V-42.9359C241.788 -42.7136 241.443 -42.1907 241.443 -41.585ZM241.443 -52.66V-48.7948C241.443 -48.189 241.788 -47.6661 242.278 -47.4439V-48.2827C242.278 -48.7098 242.601 -49.0584 243 -49.0584C243.399 -49.0584 243.722 -48.712 243.722 -48.2827V-47.4439C244.212 -47.6661 244.557 -48.1869 244.557 -48.7948V-52.66C244.557 -53.2658 244.212 -53.7887 243.722 -54.0109V-53.1655C243.722 -52.7385 243.399 -52.3899 243 -52.3899C242.601 -52.3899 242.278 -52.7363 242.278 -53.1655V-54.0109C241.788 -53.7887 241.443 -53.2679 241.443 -52.66ZM241.443 -63.4257V-59.5626C241.443 -58.9547 241.788 -58.434 242.278 -58.2117V-59.0027C242.278 -59.4297 242.601 -59.7784 243 -59.7784C243.399 -59.7784 243.722 -59.4319 243.722 -59.0027V-58.2117C244.212 -58.434 244.557 -58.9547 244.557 -59.5626V-63.4257C244.557 -64.0336 244.212 -64.5544 243.722 -64.7766V-64.2864C243.722 -63.8593 243.399 -63.5107 243 -63.5107C242.601 -63.5107 242.278 -63.8571 242.278 -64.2864V-64.7766C241.788 -64.5544 241.443 -64.0336 241.443 -63.4257ZM241.443 -74.5008V-70.6355C241.443 -70.0276 241.788 -69.5069 242.278 -69.2846V-70.1235C242.278 -70.5506 242.601 -70.8992 243 -70.8992C243.399 -70.8992 243.722 -70.5527 243.722 -70.1235V-69.2846C244.212 -69.5069 244.557 -70.0276 244.557 -70.6355V-74.5008C244.557 -75.1065 244.212 -75.6294 243.722 -75.8517V-75.0063C243.722 -74.5792 243.399 -74.2306 243 -74.2306C242.601 -74.2306 242.278 -74.5771 242.278 -75.0063V-75.8517C241.788 -75.6294 241.443 -75.1087 241.443 -74.5008ZM241.443 -85.5955V-81.7302C241.443 -81.1223 241.788 -80.6016 242.278 -80.3793V-80.8434C242.278 -81.2726 242.601 -81.6191 243 -81.6191C243.399 -81.6191 243.722 -81.2726 243.722 -80.8434V-80.3793C244.212 -80.6016 244.557 -81.1223 244.557 -81.7302V-85.5955C244.557 -86.2034 244.212 -86.7241 243.722 -86.9464V-86.4561C243.722 -86.0291 243.399 -85.6805 243 -85.6805C242.601 -85.6805 242.278 -86.0269 242.278 -86.4561V-86.9464C241.788 -86.7241 241.443 -86.2034 241.443 -85.5955ZM241.443 -96.6684V-92.8053C241.443 -92.1974 241.788 -91.6766 242.278 -91.4544V-92.2933C242.278 -92.7203 242.601 -93.0689 243 -93.0689C243.399 -93.0689 243.722 -92.7225 243.722 -92.2933V-91.4544C244.212 -91.6766 244.557 -92.1974 244.557 -92.8053V-96.6684C244.557 -97.2763 244.212 -97.797 243.722 -98.0193V-97.1739C243.722 -96.7468 243.399 -96.3982 243 -96.3982C242.601 -96.3982 242.278 -96.7446 242.278 -97.1739V-98.0193C241.788 -97.797 241.443 -97.2763 241.443 -96.6684ZM241.443 -107.436V-103.571C241.443 -102.965 241.788 -102.442 242.278 -102.22V-103.011C242.278 -103.438 242.601 -103.787 243 -103.787C243.399 -103.787 243.722 -103.44 243.722 -103.011V-102.22C244.212 -102.442 244.557 -102.963 244.557 -103.571V-107.436C244.557 -108.042 244.212 -108.565 243.722 -108.787V-108.297C243.722 -107.87 243.399 -107.521 243 -107.521C242.601 -107.521 242.278 -107.868 242.278 -108.297V-108.787C241.788 -108.565 241.443 -108.044 241.443 -107.436ZM241.443 -118.509V-114.644C241.443 -114.036 241.788 -113.515 242.278 -113.293V-114.132C242.278 -114.559 242.601 -114.908 243 -114.908C243.399 -114.908 243.722 -114.561 243.722 -114.132V-113.293C244.212 -113.515 244.557 -114.036 244.557 -114.644V-118.509C244.557 -119.117 244.212 -119.638 243.722 -119.86V-119.015C243.722 -118.585 243.399 -118.239 243 -118.239C242.601 -118.239 242.278 -118.585 242.278 -119.015V-119.86C241.788 -119.638 241.443 -119.115 241.443 -118.509ZM241.443 -129.423V-125.558C241.443 -124.95 241.788 -124.429 242.278 -124.207V-124.85C242.278 -125.277 242.601 -125.625 243 -125.625C243.399 -125.625 243.722 -125.279 243.722 -124.85V-124.207C244.212 -124.429 244.557 -124.952 244.557 -125.558V-129.423C244.557 -130.031 244.212 -130.552 243.722 -130.774V-130.284C243.722 -129.857 243.399 -129.508 243 -129.508C242.601 -129.508 242.278 -129.854 242.278 -130.284V-130.774C241.788 -130.552 241.443 -130.031 241.443 -129.423ZM241.443 -140.498V-136.633C241.443 -136.027 241.788 -135.504 242.278 -135.282V-136.121C242.278 -136.55 242.601 -136.896 243 -136.896C243.399 -136.896 243.722 -136.55 243.722 -136.121V-135.282C244.212 -135.504 244.557 -136.025 244.557 -136.633V-140.498C244.557 -141.104 244.212 -141.627 243.722 -141.849V-141.004C243.722 -140.577 243.399 -140.228 243 -140.228C242.601 -140.228 242.278 -140.574 242.278 -141.004V-141.849C241.788 -141.627 241.443 -141.106 241.443 -140.498ZM241.443 -151.264V-147.401C241.443 -146.793 241.788 -146.272 242.278 -146.05V-146.841C242.278 -147.268 242.601 -147.616 243 -147.616C243.399 -147.616 243.722 -147.27 243.722 -146.841V-146.05C244.212 -146.272 244.557 -146.793 244.557 -147.401V-151.264C244.557 -151.872 244.212 -152.392 243.722 -152.615V-152.124C243.722 -151.697 243.399 -151.349 243 -151.349C242.601 -151.349 242.278 -151.695 242.278 -152.124V-152.615C241.788 -152.392 241.443 -151.872 241.443 -151.264ZM241.443 -162.339V-158.474C241.443 -157.868 241.788 -157.345 242.278 -157.123V-157.962C242.278 -158.389 242.601 -158.737 243 -158.737C243.399 -158.737 243.722 -158.391 243.722 -157.962V-157.123C244.212 -157.345 244.557 -157.866 244.557 -158.474V-162.339C244.557 -162.945 244.212 -163.468 243.722 -163.69V-162.844C243.722 -162.417 243.399 -162.069 243 -162.069C242.601 -162.069 242.278 -162.415 242.278 -162.844V-163.69C241.788 -163.468 241.443 -162.947 241.443 -162.339ZM241.443 -173.401V-169.536C241.443 -168.93 241.788 -168.407 242.278 -168.185V-168.679C242.278 -169.106 242.601 -169.455 243 -169.455C243.399 -169.455 243.722 -169.109 243.722 -168.679V-168.185C244.212 -168.407 244.557 -168.928 244.557 -169.536V-173.401C244.557 -174.007 244.212 -174.53 243.722 -174.752V-174.262C243.722 -173.832 243.399 -173.486 243 -173.486C242.601 -173.486 242.278 -173.832 242.278 -174.262V-174.752C241.788 -174.53 241.443 -174.009 241.443 -173.401ZM241.443 -184.476V-180.611C241.443 -180.005 241.788 -179.482 242.278 -179.26V-180.099C242.278 -180.526 242.601 -180.874 243 -180.874C243.399 -180.874 243.722 -180.528 243.722 -180.099V-179.26C244.212 -179.482 244.557 -180.003 244.557 -180.611V-184.476C244.557 -185.084 244.212 -185.605 243.722 -185.827V-184.981C243.722 -184.552 243.399 -184.206 243 -184.206C242.601 -184.206 242.278 -184.552 242.278 -184.981V-185.827C241.788 -185.605 241.443 -185.084 241.443 -184.476ZM241.443 -195.244V-191.379C241.443 -190.771 241.788 -190.25 242.278 -190.028V-190.819C242.278 -191.248 242.601 -191.594 243 -191.594C243.399 -191.594 243.722 -191.248 243.722 -190.819V-190.028C244.212 -190.25 244.557 -190.771 244.557 -191.379V-195.244C244.557 -195.852 244.212 -196.372 243.722 -196.595V-196.104C243.722 -195.675 243.399 -195.329 243 -195.329C242.601 -195.329 242.278 -195.675 242.278 -196.104V-196.595C241.788 -196.372 241.443 -195.852 241.443 -195.244ZM241.443 -206.317V-202.451C241.443 -201.844 241.788 -201.323 242.278 -201.101V-201.939C242.278 -202.369 242.601 -202.715 243 -202.715C243.399 -202.715 243.722 -202.369 243.722 -201.939V-201.101C244.212 -201.323 244.557 -201.844 244.557 -202.451V-206.317C244.557 -206.925 244.212 -207.445 243.722 -207.668V-206.822C243.722 -206.393 243.399 -206.047 243 -206.047C242.601 -206.047 242.278 -206.393 242.278 -206.822V-207.668C241.788 -207.445 241.443 -206.925 241.443 -206.317ZM241.443 -217.231V-213.365C241.443 -212.757 241.788 -212.237 242.278 -212.014V-212.657C242.278 -213.086 242.601 -213.433 243 -213.433C243.399 -213.433 243.722 -213.086 243.722 -212.657V-212.014C244.212 -212.237 244.557 -212.757 244.557 -213.365V-217.231C244.557 -217.838 244.212 -218.359 243.722 -218.581V-218.091C243.722 -217.662 243.399 -217.316 243 -217.316C242.601 -217.316 242.278 -217.662 242.278 -218.091V-218.581C241.788 -218.359 241.443 -217.838 241.443 -217.231ZM241.443 -228.306V-224.44C241.443 -223.832 241.788 -223.312 242.278 -223.089V-223.928C242.278 -224.358 242.601 -224.704 243 -224.704C243.399 -224.704 243.722 -224.358 243.722 -223.928V-223.089C244.212 -223.312 244.557 -223.832 244.557 -224.44V-228.306C244.557 -228.914 244.212 -229.434 243.722 -229.657V-228.811C243.722 -228.382 243.399 -228.035 243 -228.035C242.601 -228.035 242.278 -228.382 242.278 -228.811V-229.657C241.788 -229.434 241.443 -228.914 241.443 -228.306ZM241.443 -239.074V-235.208C241.443 -234.6 241.788 -234.08 242.278 -233.857V-234.648C242.278 -235.078 242.601 -235.424 243 -235.424C243.399 -235.424 243.722 -235.078 243.722 -234.648V-233.857C244.212 -234.08 244.557 -234.6 244.557 -235.208V-239.074C244.557 -239.681 244.212 -240.202 243.722 -240.424V-239.934C243.722 -239.505 243.399 -239.158 243 -239.158C242.601 -239.158 242.278 -239.505 242.278 -239.934V-240.424C241.788 -240.202 241.443 -239.681 241.443 -239.074ZM241.443 -250.146V-246.281C241.443 -245.673 241.788 -245.152 242.278 -244.93V-245.769C242.278 -246.198 242.601 -246.545 243 -246.545C243.399 -246.545 243.722 -246.198 243.722 -245.769V-244.93C244.212 -245.152 244.557 -245.673 244.557 -246.281V-250.146C244.557 -250.754 244.212 -251.275 243.722 -251.497V-250.652C243.722 -250.223 243.399 -249.876 243 -249.876C242.601 -249.876 242.278 -250.223 242.278 -250.652V-251.497C241.788 -251.275 241.443 -250.754 241.443 -250.146ZM241.443 -261.241V-257.376C241.443 -256.768 241.788 -256.247 242.278 -256.025V-256.487C242.278 -256.916 242.601 -257.263 243 -257.263C243.399 -257.263 243.722 -256.916 243.722 -256.487V-256.025C244.212 -256.247 244.557 -256.768 244.557 -257.376V-261.241C244.557 -261.849 244.212 -262.37 243.722 -262.592V-262.102C243.722 -261.673 243.399 -261.326 243 -261.326C242.601 -261.326 242.278 -261.673 242.278 -262.102V-262.592C241.788 -262.37 241.443 -261.849 241.443 -261.241ZM241.443 -272.316V-268.451C241.443 -267.843 241.788 -267.322 242.278 -267.1V-267.939C242.278 -268.368 242.601 -268.715 243 -268.715C243.399 -268.715 243.722 -268.368 243.722 -267.939V-267.1C244.212 -267.322 244.557 -267.843 244.557 -268.451V-272.316C244.557 -272.924 244.212 -273.445 243.722 -273.667V-272.822C243.722 -272.392 243.399 -272.046 243 -272.046C242.601 -272.046 242.278 -272.392 242.278 -272.822V-273.667C241.788 -273.445 241.443 -272.924 241.443 -272.316ZM241.443 -283.082V-279.217C241.443 -278.609 241.788 -278.088 242.278 -277.866V-278.657C242.278 -279.086 242.601 -279.432 243 -279.432C243.399 -279.432 243.722 -279.086 243.722 -278.657V-277.866C244.212 -278.088 244.557 -278.609 244.557 -279.217V-283.082C244.557 -283.69 244.212 -284.211 243.722 -284.433V-283.943C243.722 -283.513 243.399 -283.167 243 -283.167C242.601 -283.167 242.278 -283.513 242.278 -283.943V-284.433C241.788 -284.211 241.443 -283.69 241.443 -283.082ZM241.443 -294.157V-290.292C241.443 -289.684 241.788 -289.163 242.278 -288.941V-289.78C242.278 -290.209 242.601 -290.555 243 -290.555C243.399 -290.555 243.722 -290.209 243.722 -289.78V-288.941C244.212 -289.163 244.557 -289.684 244.557 -290.292V-294.157C244.557 -294.765 244.212 -295.286 243.722 -295.508V-294.662C243.722 -294.233 243.399 -293.887 243 -293.887C242.601 -293.887 242.278 -294.233 242.278 -294.662V-295.508C241.788 -295.286 241.443 -294.765 241.443 -294.157ZM241.443 -305.071V-301.206C241.443 -300.598 241.788 -300.077 242.278 -299.855V-300.497C242.278 -300.927 242.601 -301.273 243 -301.273C243.399 -301.273 243.722 -300.927 243.722 -300.497V-299.855C244.212 -300.077 244.557 -300.598 244.557 -301.206V-305.071C244.557 -305.679 244.212 -306.199 243.722 -306.422V-305.931C243.722 -305.502 243.399 -305.156 243 -305.156C242.601 -305.156 242.278 -305.502 242.278 -305.931V-306.422C241.788 -306.199 241.443 -305.679 241.443 -305.071ZM241.443 -316.146V-312.281C241.443 -311.673 241.788 -311.152 242.278 -310.93V-311.769C242.278 -312.198 242.601 -312.544 243 -312.544C243.399 -312.544 243.722 -312.198 243.722 -311.769V-310.93C244.212 -311.152 244.557 -311.673 244.557 -312.281V-316.146C244.557 -316.754 244.212 -317.275 243.722 -317.497V-316.651C243.722 -316.222 243.399 -315.876 243 -315.876C242.601 -315.876 242.278 -316.222 242.278 -316.651V-317.497C241.788 -317.275 241.443 -316.754 241.443 -316.146ZM241.443 -326.914V-323.048C241.443 -322.441 241.788 -321.92 242.278 -321.698V-322.489C242.278 -322.918 242.601 -323.264 243 -323.264C243.399 -323.264 243.722 -322.918 243.722 -322.489V-321.698C244.212 -321.92 244.557 -322.441 244.557 -323.048V-326.914C244.557 -327.522 244.212 -328.042 243.722 -328.265V-327.774C243.722 -327.345 243.399 -326.999 243 -326.999C242.601 -326.999 242.278 -327.345 242.278 -327.774V-328.265C241.788 -328.042 241.443 -327.522 241.443 -326.914Z" fill="#7B7B7B"/>
<defs>
<filter id="filter0_i_219_780" x="0" y="34" width="298" height="82" filterUnits="userSpaceOnUse" color-interpolation-filters="sRGB">
<feFlood flood-opacity="0" result="BackgroundImageFix"/>
<feBlend mode="normal" in="SourceGraphic" in2="BackgroundImageFix" result="shape"/>
<feColorMatrix in="SourceAlpha" type="matrix" values="0 0 0 0 0 0 0 0 0 0 0 0 0 0 0 0 0 0 127 0" result="hardAlpha"/>
<feOffset dy="9"/>
<feGaussianBlur stdDeviation="5.4"/>
<feComposite in2="hardAlpha" operator="arithmetic" k2="-1" k3="1"/>
<feColorMatrix type="matrix" values="0 0 0 0 1 0 0 0 0 1 0 0 0 0 1 0 0 0 0.25 0"/>
<feBlend mode="normal" in2="shape" result="effect1_innerShadow_219_780"/>
</filter>
</defs>
</svg>
